%TF.GenerationSoftware,Altium Limited,Altium Designer,22.11.1 (43)*%
G04 Layer_Color=65535*
%FSLAX45Y45*%
%MOMM*%
%TF.SameCoordinates,43E0CF4A-0526-4127-82AF-783748DA5692*%
%TF.FilePolarity,Positive*%
%TF.FileFunction,Legend,Top*%
%TF.Part,Single*%
G01*
G75*
%TA.AperFunction,NonConductor*%
%ADD34C,0.15000*%
%ADD35C,0.20000*%
%ADD36C,0.25000*%
%ADD37C,0.12700*%
%ADD38C,0.25400*%
%ADD39R,0.67500X0.55000*%
G36*
X7387216Y8148438D02*
X7393608D01*
Y8147159D01*
X7396165D01*
Y8145881D01*
X7400000D01*
Y8144602D01*
X7402557D01*
Y8143324D01*
X7405113D01*
Y8142045D01*
X7406392D01*
Y8140767D01*
X7408949D01*
Y8139489D01*
X7410227D01*
Y8138210D01*
X7411505D01*
Y8136932D01*
X7412784D01*
Y8135654D01*
X7414062D01*
Y8134375D01*
X7416619D01*
Y8133097D01*
X7417898D01*
Y8130540D01*
X7419176D01*
Y8129261D01*
X7420454D01*
Y8127983D01*
X7421733D01*
Y8126705D01*
X7423011D01*
Y8124148D01*
X7424290D01*
Y8122869D01*
X7425568D01*
Y8120312D01*
X7426846D01*
Y8119034D01*
X7428125D01*
Y8116477D01*
X7429403D01*
Y8115199D01*
X7430682D01*
Y8112642D01*
X7431960D01*
Y8110085D01*
X7433238D01*
Y8108807D01*
X7434517D01*
Y8106250D01*
X7435795D01*
Y8104972D01*
X7437074D01*
Y8102415D01*
X7438352D01*
Y8099858D01*
X7439631D01*
Y8098579D01*
X7440909D01*
Y8096023D01*
X7442187D01*
Y8093466D01*
X7443466D01*
Y8092188D01*
X7444744D01*
Y8089631D01*
X7446022D01*
Y8087074D01*
X7447301D01*
Y8085795D01*
X7448579D01*
Y8083239D01*
X7449858D01*
Y8080682D01*
X7451136D01*
Y8079403D01*
X7452415D01*
Y8076847D01*
X7453693D01*
Y8074290D01*
X7454971D01*
Y8073011D01*
X7456250D01*
Y8070455D01*
X7457528D01*
Y8067898D01*
X7458807D01*
Y8066619D01*
X7460085D01*
Y8064063D01*
X7461364D01*
Y8062784D01*
X7462642D01*
Y8060227D01*
X7463920D01*
Y8057670D01*
X7465199D01*
Y8056392D01*
X7466477D01*
Y8053835D01*
X7467755D01*
Y8051278D01*
X7469034D01*
Y8050000D01*
X7470312D01*
Y8047443D01*
X7471591D01*
Y8044886D01*
X7472869D01*
Y8043608D01*
X7474148D01*
Y8041051D01*
X7475426D01*
Y8038494D01*
X7476704D01*
Y8037216D01*
X7477983D01*
Y8034659D01*
X7479261D01*
Y8032102D01*
X7480540D01*
Y8030824D01*
X7481818D01*
Y8028267D01*
X7483097D01*
Y8025710D01*
X7484375D01*
Y8024432D01*
X7485653D01*
Y8021875D01*
X7486932D01*
Y8020597D01*
X7488210D01*
Y8018040D01*
X7489488D01*
Y8015483D01*
X7490767D01*
Y8014204D01*
X7492045D01*
Y8011648D01*
X7493324D01*
Y8009091D01*
X7494602D01*
Y8007813D01*
X7495881D01*
Y8005256D01*
X7497159D01*
Y8002699D01*
X7498437D01*
Y8001420D01*
X7499716D01*
Y8000142D01*
Y7998864D01*
X7500994D01*
Y7996307D01*
X7502273D01*
Y7995028D01*
X7503551D01*
Y7992472D01*
X7504829D01*
Y7989915D01*
X7506108D01*
Y7988636D01*
X7507386D01*
Y7986080D01*
X7508665D01*
Y7984801D01*
X7509943D01*
Y7982244D01*
X7511221D01*
Y7979687D01*
X7512500D01*
Y7978409D01*
X7513778D01*
Y7975852D01*
X7515057D01*
Y7973295D01*
X7516335D01*
Y7972017D01*
X7517613D01*
Y7969460D01*
X7518892D01*
Y7966903D01*
X7520170D01*
Y7965625D01*
X7521449D01*
Y7963068D01*
X7522727D01*
Y7960511D01*
X7524006D01*
Y7959233D01*
X7525284D01*
Y7956676D01*
X7526562D01*
Y7954119D01*
X7527841D01*
Y7952841D01*
X7529119D01*
Y7950284D01*
X7530398D01*
Y7947727D01*
X7531676D01*
Y7946449D01*
X7532954D01*
Y7943892D01*
X7534233D01*
Y7942614D01*
X7535511D01*
Y7940057D01*
X7536790D01*
Y7937500D01*
X7538068D01*
Y7936222D01*
X7539346D01*
Y7933665D01*
X7540625D01*
Y7931108D01*
X7541903D01*
Y7929829D01*
X7543182D01*
Y7927273D01*
X7544460D01*
Y7924716D01*
X7545739D01*
Y7923438D01*
X7547017D01*
Y7920881D01*
X7548295D01*
Y7918324D01*
X7549574D01*
Y7917045D01*
X7550852D01*
Y7914489D01*
X7552130D01*
Y7911932D01*
X7553409D01*
Y7910653D01*
X7554687D01*
Y7908096D01*
X7555966D01*
Y7905540D01*
X7557244D01*
Y7904261D01*
X7558523D01*
Y7901705D01*
X7559801D01*
Y7900426D01*
X7561079D01*
Y7897869D01*
X7562358D01*
Y7895312D01*
X7563636D01*
Y7894034D01*
X7564915D01*
Y7891477D01*
X7566193D01*
Y7888920D01*
X7567472D01*
Y7887642D01*
X7568750D01*
Y7885085D01*
X7570028D01*
Y7882528D01*
X7571307D01*
Y7881250D01*
X7572585D01*
Y7878693D01*
X7573863D01*
Y7876136D01*
X7575142D01*
Y7874858D01*
X7576420D01*
Y7872301D01*
X7577699D01*
Y7869744D01*
X7578977D01*
Y7868466D01*
X7580256D01*
Y7865909D01*
X7581534D01*
Y7864631D01*
X7582812D01*
Y7862074D01*
X7584091D01*
Y7859517D01*
X7585369D01*
Y7858239D01*
X7586648D01*
Y7855682D01*
X7587926D01*
Y7853125D01*
X7589204D01*
Y7851847D01*
X7590483D01*
Y7849290D01*
X7591761D01*
Y7846733D01*
X7593040D01*
Y7845454D01*
X7594318D01*
Y7842898D01*
X7595596D01*
Y7840341D01*
X7596875D01*
Y7839063D01*
X7598153D01*
Y7836506D01*
X7599432D01*
Y7833949D01*
X7600710D01*
Y7832670D01*
X7601989D01*
Y7830114D01*
X7603267D01*
Y7827557D01*
X7604545D01*
Y7826278D01*
X7605824D01*
Y7823721D01*
X7607102D01*
Y7822443D01*
X7608381D01*
Y7819886D01*
X7609659D01*
Y7817330D01*
X7610937D01*
Y7816051D01*
X7612216D01*
Y7813494D01*
X7613494D01*
Y7810937D01*
X7614773D01*
Y7809659D01*
X7616051D01*
Y7807102D01*
X7617329D01*
Y7804545D01*
X7618608D01*
Y7803267D01*
X7619886D01*
Y7800710D01*
X7621165D01*
Y7798153D01*
X7622443D01*
Y7796875D01*
X7623721D01*
Y7794318D01*
X7625000D01*
Y7791761D01*
X7626278D01*
Y7790483D01*
X7627557D01*
Y7787926D01*
X7628835D01*
Y7785369D01*
X7630114D01*
Y7784091D01*
X7631392D01*
Y7781534D01*
X7632670D01*
Y7780256D01*
X7633949D01*
Y7777699D01*
X7635227D01*
Y7775142D01*
X7636505D01*
Y7773864D01*
X7637784D01*
Y7771307D01*
X7639062D01*
Y7768750D01*
X7640341D01*
Y7767472D01*
X7641619D01*
Y7764915D01*
X7642898D01*
Y7762358D01*
X7644176D01*
Y7761079D01*
X7645454D01*
Y7758523D01*
X7646733D01*
Y7755966D01*
X7648011D01*
Y7754687D01*
X7649290D01*
Y7752131D01*
X7650568D01*
Y7749574D01*
X7651847D01*
Y7748295D01*
X7653125D01*
Y7745739D01*
X7654403D01*
Y7744460D01*
X7655682D01*
Y7741903D01*
X7656960D01*
Y7739346D01*
X7658238D01*
Y7738068D01*
X7659517D01*
Y7735511D01*
X7660795D01*
Y7732955D01*
X7662074D01*
Y7731676D01*
X7663352D01*
Y7729119D01*
X7664631D01*
Y7726562D01*
X7665909D01*
Y7725284D01*
X7667187D01*
Y7722727D01*
X7668466D01*
Y7720170D01*
X7669744D01*
Y7718892D01*
X7671023D01*
Y7716335D01*
X7672301D01*
Y7713778D01*
X7673580D01*
Y7712500D01*
X7674858D01*
Y7709943D01*
X7676136D01*
Y7707386D01*
X7677415D01*
Y7706108D01*
X7678693D01*
Y7703551D01*
X7679971D01*
Y7702273D01*
X7681250D01*
Y7699716D01*
X7682528D01*
Y7697159D01*
X7683807D01*
Y7695880D01*
X7685085D01*
Y7693324D01*
X7686364D01*
Y7690767D01*
X7687642D01*
Y7689489D01*
X7688920D01*
Y7686932D01*
X7690199D01*
Y7684375D01*
X7691477D01*
Y7683096D01*
X7692756D01*
Y7680540D01*
X7694034D01*
Y7677983D01*
X7695312D01*
Y7676704D01*
X7696591D01*
Y7674148D01*
X7697869D01*
Y7671591D01*
X7699148D01*
Y7670312D01*
X7700426D01*
Y7667756D01*
X7701704D01*
Y7665199D01*
X7702983D01*
Y7663920D01*
X7704261D01*
Y7661364D01*
X7705540D01*
Y7660085D01*
X7706818D01*
Y7657528D01*
X7708097D01*
Y7654971D01*
X7709375D01*
Y7653693D01*
X7710653D01*
Y7651136D01*
X7711932D01*
Y7648579D01*
X7713210D01*
Y7647301D01*
X7714489D01*
Y7644744D01*
X7715767D01*
Y7642187D01*
X7717045D01*
Y7640909D01*
X7718324D01*
Y7638352D01*
X7719602D01*
Y7635795D01*
X7720881D01*
Y7634517D01*
X7722159D01*
Y7631960D01*
X7723437D01*
Y7629403D01*
X7724716D01*
Y7628125D01*
X7725994D01*
Y7625568D01*
X7727273D01*
Y7624290D01*
X7728551D01*
Y7621733D01*
X7729829D01*
Y7619176D01*
X7731108D01*
Y7617898D01*
X7732386D01*
Y7615341D01*
X7733665D01*
Y7612784D01*
X7734943D01*
Y7611505D01*
X7736222D01*
Y7608949D01*
X7737500D01*
Y7606392D01*
X7738778D01*
Y7605114D01*
X7740057D01*
Y7602557D01*
X7741335D01*
Y7600000D01*
X7742613D01*
Y7598721D01*
X7743892D01*
Y7596165D01*
X7745170D01*
Y7593608D01*
X7746449D01*
Y7592329D01*
X7747727D01*
Y7589773D01*
X7749006D01*
Y7587216D01*
X7750284D01*
Y7585937D01*
X7751562D01*
Y7583381D01*
X7752841D01*
Y7582102D01*
X7754119D01*
Y7579545D01*
X7755398D01*
Y7576988D01*
X7756676D01*
Y7575710D01*
X7757955D01*
Y7573153D01*
X7759233D01*
Y7570596D01*
X7760511D01*
Y7569318D01*
X7761790D01*
Y7566761D01*
X7763068D01*
Y7564204D01*
X7764346D01*
Y7562926D01*
X7765625D01*
Y7560369D01*
X7766903D01*
Y7557812D01*
X7768182D01*
Y7556534D01*
X7769460D01*
Y7553977D01*
X7770739D01*
Y7551420D01*
X7772017D01*
Y7550142D01*
X7773295D01*
Y7547585D01*
X7774574D01*
Y7545028D01*
X7775852D01*
Y7543750D01*
X7777130D01*
Y7541193D01*
X7778409D01*
Y7539915D01*
X7779688D01*
Y7537358D01*
X7780966D01*
Y7534801D01*
X7782244D01*
Y7533523D01*
X7783523D01*
Y7530966D01*
X7784801D01*
Y7528409D01*
X7786079D01*
Y7527130D01*
X7787358D01*
Y7524574D01*
X7788636D01*
Y7522017D01*
X7789915D01*
Y7520739D01*
X7791193D01*
Y7518182D01*
X7792472D01*
Y7515625D01*
X7793750D01*
Y7514346D01*
X7795028D01*
Y7511790D01*
X7796307D01*
Y7509233D01*
X7797585D01*
Y7507955D01*
X7798863D01*
Y7505397D01*
X7800142D01*
Y7504119D01*
X7801420D01*
Y7501562D01*
X7802699D01*
Y7499006D01*
X7803977D01*
Y7497727D01*
X7805256D01*
Y7495170D01*
X7806534D01*
Y7492613D01*
X7807812D01*
Y7491335D01*
X7809091D01*
Y7488778D01*
X7810369D01*
Y7486222D01*
X7811648D01*
Y7484943D01*
X7812926D01*
Y7482386D01*
X7814204D01*
Y7479829D01*
X7815483D01*
Y7478551D01*
X7816761D01*
Y7475994D01*
X7818040D01*
Y7473437D01*
X7819318D01*
Y7472159D01*
X7820597D01*
Y7469602D01*
X7821875D01*
Y7467045D01*
X7823153D01*
Y7465767D01*
X7824432D01*
Y7463210D01*
X7825710D01*
Y7460653D01*
X7826989D01*
Y7458096D01*
X7828267D01*
Y7455540D01*
X7829545D01*
Y7451704D01*
X7830824D01*
Y7446591D01*
X7832102D01*
Y7427415D01*
X7830824D01*
Y7423579D01*
X7829545D01*
Y7419744D01*
X7828267D01*
Y7417187D01*
X7826989D01*
Y7415909D01*
X7825710D01*
Y7413352D01*
X7824432D01*
Y7412074D01*
X7823153D01*
Y7410795D01*
X7821875D01*
Y7409517D01*
X7820597D01*
Y7408238D01*
X7819318D01*
Y7406960D01*
X7818040D01*
Y7405682D01*
X7816761D01*
Y7404403D01*
X7814204D01*
Y7403125D01*
X7812926D01*
Y7401847D01*
X7810369D01*
Y7400568D01*
X7807812D01*
Y7399289D01*
X7803977D01*
Y7398011D01*
X7800142D01*
Y7396733D01*
X7792472D01*
Y7395454D01*
X6962784D01*
Y7396733D01*
X6958948D01*
Y7398011D01*
X6955113D01*
Y7399289D01*
X6952557D01*
Y7400568D01*
X6950000D01*
Y7401847D01*
X6948721D01*
Y7403125D01*
X6946164D01*
Y7404403D01*
X6944886D01*
Y7405682D01*
X6943608D01*
Y7406960D01*
X6942329D01*
Y7408238D01*
X6941051D01*
Y7410795D01*
X6939773D01*
Y7412074D01*
X6938494D01*
Y7413352D01*
X6937215D01*
Y7415909D01*
X6935937D01*
Y7418466D01*
X6934659D01*
Y7422301D01*
X6933380D01*
Y7427415D01*
X6932102D01*
Y7444034D01*
X6933380D01*
Y7450426D01*
X6934659D01*
Y7455540D01*
X6935937D01*
Y7458096D01*
X6937215D01*
Y7461932D01*
X6938494D01*
Y7464489D01*
X6939773D01*
Y7465767D01*
X6941051D01*
Y7468324D01*
X6942329D01*
Y7470880D01*
X6943608D01*
Y7473437D01*
X6944886D01*
Y7474716D01*
X6946164D01*
Y7477273D01*
X6947443D01*
Y7479829D01*
X6948721D01*
Y7481108D01*
X6950000D01*
Y7483665D01*
X6951278D01*
Y7486222D01*
X6952557D01*
Y7487500D01*
X6953835D01*
Y7490057D01*
X6955113D01*
Y7492613D01*
X6956392D01*
Y7493892D01*
X6957670D01*
Y7496449D01*
X6958948D01*
Y7499006D01*
X6960227D01*
Y7500284D01*
X6961505D01*
Y7502841D01*
X6962784D01*
Y7505397D01*
X6964062D01*
Y7506676D01*
X6965341D01*
Y7509233D01*
X6966619D01*
Y7511790D01*
X6967897D01*
Y7513068D01*
X6969176D01*
Y7515625D01*
X6970454D01*
Y7518182D01*
X6971733D01*
Y7519460D01*
X6973011D01*
Y7522017D01*
X6974290D01*
Y7524574D01*
X6975568D01*
Y7525852D01*
X6976846D01*
Y7528409D01*
X6978125D01*
Y7530966D01*
X6979403D01*
Y7532244D01*
X6980681D01*
Y7534801D01*
X6981960D01*
Y7537358D01*
X6983238D01*
Y7538636D01*
X6984517D01*
Y7541193D01*
X6985795D01*
Y7543750D01*
X6987074D01*
Y7545028D01*
X6988352D01*
Y7547585D01*
X6989630D01*
Y7550142D01*
X6990909D01*
Y7551420D01*
X6992187D01*
Y7553977D01*
X6993466D01*
Y7556534D01*
X6994744D01*
Y7557812D01*
X6996022D01*
Y7560369D01*
X6997301D01*
Y7562926D01*
X6998579D01*
Y7565483D01*
X6999858D01*
Y7566761D01*
X7001136D01*
Y7569318D01*
X7002414D01*
Y7571875D01*
X7003693D01*
Y7573153D01*
X7004971D01*
Y7575710D01*
X7006250D01*
Y7578267D01*
X7007528D01*
Y7579545D01*
X7008806D01*
Y7582102D01*
X7010085D01*
Y7584659D01*
X7011363D01*
Y7585937D01*
X7012642D01*
Y7588494D01*
X7013920D01*
Y7591051D01*
X7015199D01*
Y7592329D01*
X7016477D01*
Y7594886D01*
X7017755D01*
Y7597443D01*
X7019034D01*
Y7598721D01*
X7020312D01*
Y7601278D01*
X7021591D01*
Y7603835D01*
X7022869D01*
Y7605114D01*
X7024147D01*
Y7607670D01*
X7025426D01*
Y7610227D01*
X7026704D01*
Y7611505D01*
X7027983D01*
Y7614062D01*
X7029261D01*
Y7616619D01*
X7030539D01*
Y7617898D01*
X7031818D01*
Y7620454D01*
X7033096D01*
Y7623011D01*
X7034375D01*
Y7624290D01*
X7035653D01*
Y7626847D01*
X7036932D01*
Y7629403D01*
X7038210D01*
Y7630682D01*
X7039488D01*
Y7633238D01*
X7040767D01*
Y7635795D01*
X7042045D01*
Y7637074D01*
X7043323D01*
Y7639631D01*
X7044602D01*
Y7642187D01*
X7045880D01*
Y7643466D01*
X7047159D01*
Y7646023D01*
X7048437D01*
Y7648579D01*
X7049716D01*
Y7649858D01*
X7050994D01*
Y7652415D01*
X7052272D01*
Y7654971D01*
X7053551D01*
Y7656250D01*
X7054829D01*
Y7658807D01*
X7056108D01*
Y7661364D01*
X7057386D01*
Y7662642D01*
X7058665D01*
Y7665199D01*
X7059943D01*
Y7667756D01*
X7061221D01*
Y7669034D01*
X7062500D01*
Y7671591D01*
X7063778D01*
Y7674148D01*
X7065056D01*
Y7675426D01*
X7066335D01*
Y7677983D01*
X7067613D01*
Y7680540D01*
X7068892D01*
Y7683096D01*
X7070170D01*
Y7684375D01*
X7071449D01*
Y7686932D01*
X7072727D01*
Y7689489D01*
X7074005D01*
Y7690767D01*
X7075284D01*
Y7693324D01*
X7076562D01*
Y7695880D01*
X7077841D01*
Y7697159D01*
X7079119D01*
Y7699716D01*
X7080398D01*
Y7702273D01*
X7081676D01*
Y7703551D01*
X7082954D01*
Y7706108D01*
X7084233D01*
Y7708665D01*
X7085511D01*
Y7709943D01*
X7086789D01*
Y7712500D01*
X7088068D01*
Y7715057D01*
X7089346D01*
Y7716335D01*
X7090625D01*
Y7718892D01*
X7091903D01*
Y7721449D01*
X7093182D01*
Y7722727D01*
X7094460D01*
Y7725284D01*
X7095738D01*
Y7727841D01*
X7097017D01*
Y7729119D01*
X7098295D01*
Y7731676D01*
X7099574D01*
Y7734233D01*
X7100852D01*
Y7735511D01*
X7102130D01*
Y7738068D01*
X7103409D01*
Y7740625D01*
X7104687D01*
Y7741903D01*
X7105966D01*
Y7744460D01*
X7107244D01*
Y7747017D01*
X7108522D01*
Y7748295D01*
X7109801D01*
Y7750852D01*
X7111079D01*
Y7753409D01*
X7112358D01*
Y7754687D01*
X7113636D01*
Y7757244D01*
X7114914D01*
Y7759801D01*
X7116193D01*
Y7761079D01*
X7117471D01*
Y7763636D01*
X7118750D01*
Y7766193D01*
X7120028D01*
Y7767472D01*
X7121307D01*
Y7770028D01*
X7122585D01*
Y7772585D01*
X7123863D01*
Y7773864D01*
X7125142D01*
Y7776420D01*
X7126420D01*
Y7778977D01*
X7127699D01*
Y7780256D01*
X7128977D01*
Y7782812D01*
X7130255D01*
Y7785369D01*
X7131534D01*
Y7786648D01*
X7132812D01*
Y7789204D01*
X7134091D01*
Y7791761D01*
X7135369D01*
Y7794318D01*
X7136647D01*
Y7795597D01*
X7137926D01*
Y7798153D01*
X7139204D01*
Y7800710D01*
X7140483D01*
Y7801988D01*
X7141761D01*
Y7804545D01*
X7143040D01*
Y7807102D01*
X7144318D01*
Y7808381D01*
X7145596D01*
Y7810937D01*
X7146875D01*
Y7813494D01*
X7148153D01*
Y7814773D01*
X7149431D01*
Y7817330D01*
X7150710D01*
Y7819886D01*
X7151988D01*
Y7821165D01*
X7153267D01*
Y7823721D01*
X7154545D01*
Y7826278D01*
X7155824D01*
Y7827557D01*
X7157102D01*
Y7830114D01*
X7158380D01*
Y7832670D01*
X7159659D01*
Y7833949D01*
X7160937D01*
Y7836506D01*
X7162216D01*
Y7839063D01*
X7163494D01*
Y7840341D01*
X7164773D01*
Y7842898D01*
X7166051D01*
Y7845454D01*
X7167329D01*
Y7846733D01*
X7168608D01*
Y7849290D01*
X7169886D01*
Y7851847D01*
X7171164D01*
Y7853125D01*
X7172443D01*
Y7855682D01*
X7173721D01*
Y7858239D01*
X7175000D01*
Y7859517D01*
X7176278D01*
Y7862074D01*
X7177557D01*
Y7864631D01*
X7178835D01*
Y7865909D01*
X7180113D01*
Y7868466D01*
X7181392D01*
Y7871023D01*
X7182670D01*
Y7872301D01*
X7183949D01*
Y7874858D01*
X7185227D01*
Y7877415D01*
X7186505D01*
Y7878693D01*
X7187784D01*
Y7881250D01*
X7189062D01*
Y7883807D01*
X7190341D01*
Y7885085D01*
X7191619D01*
Y7887642D01*
X7192897D01*
Y7890199D01*
X7194176D01*
Y7891477D01*
X7195454D01*
Y7894034D01*
X7196733D01*
Y7896591D01*
X7198011D01*
Y7897869D01*
X7199290D01*
Y7900426D01*
X7200568D01*
Y7902983D01*
X7201846D01*
Y7904261D01*
X7203125D01*
Y7906818D01*
X7204403D01*
Y7909375D01*
X7205682D01*
Y7911932D01*
X7206960D01*
Y7913210D01*
X7208238D01*
Y7915767D01*
X7209517D01*
Y7918324D01*
X7210795D01*
Y7919602D01*
X7212074D01*
Y7922159D01*
X7213352D01*
Y7924716D01*
X7214630D01*
Y7925994D01*
X7215909D01*
Y7928551D01*
X7217187D01*
Y7931108D01*
X7218466D01*
Y7932386D01*
X7219744D01*
Y7934943D01*
X7221022D01*
Y7937500D01*
X7222301D01*
Y7938778D01*
X7223579D01*
Y7941335D01*
X7224858D01*
Y7943892D01*
X7226136D01*
Y7945171D01*
X7227415D01*
Y7947727D01*
X7228693D01*
Y7950284D01*
X7229971D01*
Y7951562D01*
X7231250D01*
Y7954119D01*
X7232528D01*
Y7956676D01*
X7233806D01*
Y7957955D01*
X7235085D01*
Y7960511D01*
X7236363D01*
Y7963068D01*
X7237642D01*
Y7964347D01*
X7238920D01*
Y7966903D01*
X7240199D01*
Y7969460D01*
X7241477D01*
Y7970739D01*
X7242755D01*
Y7973295D01*
X7244034D01*
Y7975852D01*
X7245312D01*
Y7977131D01*
X7246591D01*
Y7979687D01*
X7247869D01*
Y7982244D01*
X7249148D01*
Y7983523D01*
X7250426D01*
Y7986080D01*
X7251704D01*
Y7988636D01*
X7252983D01*
Y7989915D01*
X7254261D01*
Y7992472D01*
X7255539D01*
Y7995028D01*
X7256818D01*
Y7996307D01*
X7258096D01*
Y7998864D01*
X7259375D01*
Y8001420D01*
X7260653D01*
Y8002699D01*
X7261932D01*
Y8005256D01*
X7263210D01*
Y8007813D01*
X7264488D01*
Y8009091D01*
X7265767D01*
Y8011648D01*
X7267045D01*
Y8014204D01*
X7268324D01*
Y8015483D01*
X7269602D01*
Y8018040D01*
X7270881D01*
Y8020597D01*
X7272159D01*
Y8021875D01*
X7273437D01*
Y8024432D01*
X7274716D01*
Y8026989D01*
X7275994D01*
Y8029546D01*
X7277272D01*
Y8030824D01*
X7278551D01*
Y8033381D01*
X7279829D01*
Y8035937D01*
X7281108D01*
Y8037216D01*
X7282386D01*
Y8039773D01*
X7283665D01*
Y8042330D01*
X7284943D01*
Y8043608D01*
X7286221D01*
Y8046165D01*
X7287500D01*
Y8048722D01*
X7288778D01*
Y8050000D01*
X7290057D01*
Y8052557D01*
X7291335D01*
Y8055114D01*
X7292613D01*
Y8056392D01*
X7293892D01*
Y8058949D01*
X7295170D01*
Y8061506D01*
X7296449D01*
Y8062784D01*
X7297727D01*
Y8065341D01*
X7299005D01*
Y8067898D01*
X7300284D01*
Y8069176D01*
X7301562D01*
Y8071733D01*
X7302841D01*
Y8074290D01*
X7304119D01*
Y8075568D01*
X7305398D01*
Y8078125D01*
X7306676D01*
Y8080682D01*
X7307954D01*
Y8081960D01*
X7309233D01*
Y8084517D01*
X7310511D01*
Y8087074D01*
X7311790D01*
Y8088352D01*
X7313068D01*
Y8090909D01*
X7314346D01*
Y8093466D01*
X7315625D01*
Y8094744D01*
X7316903D01*
Y8097301D01*
X7318182D01*
Y8099858D01*
X7319460D01*
Y8101136D01*
X7320738D01*
Y8103693D01*
X7322017D01*
Y8106250D01*
X7323295D01*
Y8107528D01*
X7324574D01*
Y8110085D01*
X7325852D01*
Y8112642D01*
X7327130D01*
Y8113921D01*
X7328409D01*
Y8116477D01*
X7329687D01*
Y8119034D01*
X7330966D01*
Y8120312D01*
X7332244D01*
Y8122869D01*
X7333523D01*
Y8124148D01*
X7334801D01*
Y8126705D01*
X7336079D01*
Y8127983D01*
X7337358D01*
Y8129261D01*
X7338636D01*
Y8130540D01*
X7339914D01*
Y8131818D01*
X7341193D01*
Y8133097D01*
X7342471D01*
Y8134375D01*
X7343750D01*
Y8135654D01*
X7345028D01*
Y8136932D01*
X7346307D01*
Y8138210D01*
X7347585D01*
Y8139489D01*
X7350142D01*
Y8140767D01*
X7351420D01*
Y8142045D01*
X7353977D01*
Y8143324D01*
X7356534D01*
Y8144602D01*
X7357812D01*
Y8145881D01*
X7361647D01*
Y8147159D01*
X7365483D01*
Y8148438D01*
X7370596D01*
Y8149716D01*
X7387216D01*
Y8148438D01*
D02*
G37*
%LPC*%
G36*
X7380824Y8136932D02*
X7376989D01*
Y8135654D01*
X7369318D01*
Y8134375D01*
X7365483D01*
Y8133097D01*
X7362926D01*
Y8131818D01*
X7360369D01*
Y8130540D01*
X7359091D01*
Y8129261D01*
X7356534D01*
Y8127983D01*
X7355256D01*
Y8126705D01*
X7353977D01*
Y8125426D01*
X7352699D01*
Y8124148D01*
X7350142D01*
Y8121591D01*
X7348863D01*
Y8120312D01*
X7347585D01*
Y8119034D01*
X7346307D01*
Y8117756D01*
X7345028D01*
Y8115199D01*
X7343750D01*
Y8113921D01*
X7342471D01*
Y8111364D01*
X7341193D01*
Y8110085D01*
X7339914D01*
Y8107528D01*
X7338636D01*
Y8104972D01*
X7337358D01*
Y8103693D01*
X7336079D01*
Y8101136D01*
X7334801D01*
Y8098579D01*
X7333523D01*
Y8097301D01*
X7332244D01*
Y8094744D01*
X7330966D01*
Y8092188D01*
X7329687D01*
Y8090909D01*
X7328409D01*
Y8088352D01*
X7327130D01*
Y8085795D01*
X7325852D01*
Y8084517D01*
X7324574D01*
Y8081960D01*
X7323295D01*
Y8079403D01*
X7322017D01*
Y8078125D01*
X7320738D01*
Y8075568D01*
X7319460D01*
Y8073011D01*
X7318182D01*
Y8071733D01*
X7316903D01*
Y8069176D01*
X7315625D01*
Y8066619D01*
X7314346D01*
Y8065341D01*
X7313068D01*
Y8062784D01*
X7311790D01*
Y8060227D01*
X7310511D01*
Y8058949D01*
X7309233D01*
Y8056392D01*
X7307954D01*
Y8053835D01*
X7306676D01*
Y8052557D01*
X7305398D01*
Y8050000D01*
X7304119D01*
Y8047443D01*
X7302841D01*
Y8046165D01*
X7301562D01*
Y8043608D01*
X7300284D01*
Y8041051D01*
X7299005D01*
Y8039773D01*
X7297727D01*
Y8037216D01*
X7296449D01*
Y8034659D01*
X7295170D01*
Y8033381D01*
X7293892D01*
Y8030824D01*
X7292613D01*
Y8028267D01*
X7291335D01*
Y8026989D01*
X7290057D01*
Y8024432D01*
X7288778D01*
Y8021875D01*
X7287500D01*
Y8020597D01*
X7286221D01*
Y8018040D01*
X7284943D01*
Y8015483D01*
X7283665D01*
Y8014204D01*
X7282386D01*
Y8011648D01*
X7281108D01*
Y8009091D01*
X7279829D01*
Y8006534D01*
X7278551D01*
Y8005256D01*
X7277272D01*
Y8002699D01*
X7275994D01*
Y8000142D01*
X7274716D01*
Y7998864D01*
X7273437D01*
Y7996307D01*
X7272159D01*
Y7993750D01*
X7270881D01*
Y7992472D01*
X7269602D01*
Y7989915D01*
X7268324D01*
Y7987358D01*
X7267045D01*
Y7986080D01*
X7265767D01*
Y7983523D01*
X7264488D01*
Y7980966D01*
X7263210D01*
Y7979687D01*
X7261932D01*
Y7977131D01*
X7260653D01*
Y7974574D01*
X7259375D01*
Y7973295D01*
X7258096D01*
Y7970739D01*
X7256818D01*
Y7968182D01*
X7255539D01*
Y7966903D01*
X7254261D01*
Y7964347D01*
X7252983D01*
Y7961790D01*
X7251704D01*
Y7960511D01*
X7250426D01*
Y7957955D01*
X7249148D01*
Y7955398D01*
X7247869D01*
Y7954119D01*
X7246591D01*
Y7951562D01*
X7245312D01*
Y7949006D01*
X7244034D01*
Y7947727D01*
X7242755D01*
Y7945171D01*
X7241477D01*
Y7942614D01*
X7240199D01*
Y7941335D01*
X7238920D01*
Y7938778D01*
X7237642D01*
Y7936222D01*
X7236363D01*
Y7934943D01*
X7235085D01*
Y7932386D01*
X7233806D01*
Y7929829D01*
X7232528D01*
Y7928551D01*
X7231250D01*
Y7925994D01*
X7229971D01*
Y7923438D01*
X7228693D01*
Y7922159D01*
X7227415D01*
Y7919602D01*
X7226136D01*
Y7917045D01*
X7224858D01*
Y7915767D01*
X7223579D01*
Y7913210D01*
X7222301D01*
Y7910653D01*
X7221022D01*
Y7909375D01*
X7219744D01*
Y7906818D01*
X7218466D01*
Y7904261D01*
X7217187D01*
Y7902983D01*
X7215909D01*
Y7900426D01*
X7214630D01*
Y7897869D01*
X7213352D01*
Y7896591D01*
X7212074D01*
Y7894034D01*
X7210795D01*
Y7891477D01*
X7209517D01*
Y7888920D01*
X7208238D01*
Y7887642D01*
X7206960D01*
Y7885085D01*
X7205682D01*
Y7882528D01*
X7204403D01*
Y7881250D01*
X7203125D01*
Y7878693D01*
X7201846D01*
Y7876136D01*
X7200568D01*
Y7874858D01*
X7199290D01*
Y7872301D01*
X7198011D01*
Y7869744D01*
X7196733D01*
Y7868466D01*
X7195454D01*
Y7865909D01*
X7194176D01*
Y7863352D01*
X7192897D01*
Y7862074D01*
X7191619D01*
Y7859517D01*
X7190341D01*
Y7856960D01*
X7189062D01*
Y7855682D01*
X7187784D01*
Y7853125D01*
X7186505D01*
Y7850568D01*
X7185227D01*
Y7849290D01*
X7183949D01*
Y7846733D01*
X7182670D01*
Y7844176D01*
X7181392D01*
Y7842898D01*
X7180113D01*
Y7840341D01*
X7178835D01*
Y7837784D01*
X7177557D01*
Y7836506D01*
X7176278D01*
Y7833949D01*
X7175000D01*
Y7831392D01*
X7173721D01*
Y7830114D01*
X7172443D01*
Y7827557D01*
X7171164D01*
Y7825000D01*
X7169886D01*
Y7823721D01*
X7168608D01*
Y7821165D01*
X7167329D01*
Y7818608D01*
X7166051D01*
Y7817330D01*
X7164773D01*
Y7814773D01*
X7163494D01*
Y7812216D01*
X7162216D01*
Y7810937D01*
X7160937D01*
Y7808381D01*
X7159659D01*
Y7805824D01*
X7158380D01*
Y7804545D01*
X7157102D01*
Y7801988D01*
X7155824D01*
Y7799432D01*
X7154545D01*
Y7798153D01*
X7153267D01*
Y7795597D01*
X7151988D01*
Y7793040D01*
X7150710D01*
Y7791761D01*
X7149431D01*
Y7789204D01*
X7148153D01*
Y7786648D01*
X7146875D01*
Y7785369D01*
X7145596D01*
Y7782812D01*
X7144318D01*
Y7780256D01*
X7143040D01*
Y7778977D01*
X7141761D01*
Y7776420D01*
X7140483D01*
Y7773864D01*
X7139204D01*
Y7771307D01*
X7137926D01*
Y7770028D01*
X7136647D01*
Y7767472D01*
X7135369D01*
Y7764915D01*
X7134091D01*
Y7763636D01*
X7132812D01*
Y7761079D01*
X7131534D01*
Y7758523D01*
X7130255D01*
Y7757244D01*
X7128977D01*
Y7754687D01*
X7127699D01*
Y7752131D01*
X7126420D01*
Y7750852D01*
X7125142D01*
Y7748295D01*
X7123863D01*
Y7745739D01*
X7122585D01*
Y7744460D01*
X7121307D01*
Y7741903D01*
X7120028D01*
Y7739346D01*
X7118750D01*
Y7738068D01*
X7117471D01*
Y7735511D01*
X7116193D01*
Y7732955D01*
X7114914D01*
Y7731676D01*
X7113636D01*
Y7729119D01*
X7112358D01*
Y7726562D01*
X7111079D01*
Y7725284D01*
X7109801D01*
Y7722727D01*
X7108522D01*
Y7720170D01*
X7107244D01*
Y7718892D01*
X7105966D01*
Y7716335D01*
X7104687D01*
Y7713778D01*
X7103409D01*
Y7712500D01*
X7102130D01*
Y7709943D01*
X7100852D01*
Y7707386D01*
X7099574D01*
Y7706108D01*
X7098295D01*
Y7703551D01*
X7097017D01*
Y7700994D01*
X7095738D01*
Y7699716D01*
X7094460D01*
Y7697159D01*
X7093182D01*
Y7694602D01*
X7091903D01*
Y7693324D01*
X7090625D01*
Y7690767D01*
X7089346D01*
Y7688210D01*
X7088068D01*
Y7686932D01*
X7086789D01*
Y7684375D01*
X7085511D01*
Y7681818D01*
X7084233D01*
Y7680540D01*
X7082954D01*
Y7677983D01*
X7081676D01*
Y7675426D01*
X7080398D01*
Y7674148D01*
X7079119D01*
Y7671591D01*
X7077841D01*
Y7669034D01*
X7076562D01*
Y7667756D01*
X7075284D01*
Y7665199D01*
X7074005D01*
Y7662642D01*
X7072727D01*
Y7661364D01*
X7071449D01*
Y7658807D01*
X7070170D01*
Y7656250D01*
X7068892D01*
Y7653693D01*
X7067613D01*
Y7652415D01*
X7066335D01*
Y7649858D01*
X7065056D01*
Y7647301D01*
X7063778D01*
Y7646023D01*
X7062500D01*
Y7643466D01*
X7061221D01*
Y7640909D01*
X7059943D01*
Y7639631D01*
X7058665D01*
Y7637074D01*
X7057386D01*
Y7634517D01*
X7056108D01*
Y7633238D01*
X7054829D01*
Y7630682D01*
X7053551D01*
Y7628125D01*
X7052272D01*
Y7626847D01*
X7050994D01*
Y7624290D01*
X7049716D01*
Y7621733D01*
X7048437D01*
Y7620454D01*
X7047159D01*
Y7617898D01*
X7045880D01*
Y7615341D01*
X7044602D01*
Y7614062D01*
X7043323D01*
Y7611505D01*
X7042045D01*
Y7608949D01*
X7040767D01*
Y7607670D01*
X7039488D01*
Y7605114D01*
X7038210D01*
Y7602557D01*
X7036932D01*
Y7601278D01*
X7035653D01*
Y7598721D01*
X7034375D01*
Y7596165D01*
X7033096D01*
Y7594886D01*
X7031818D01*
Y7592329D01*
X7030539D01*
Y7589773D01*
X7029261D01*
Y7588494D01*
X7027983D01*
Y7585937D01*
X7026704D01*
Y7583381D01*
X7025426D01*
Y7582102D01*
X7024147D01*
Y7579545D01*
X7022869D01*
Y7576988D01*
X7021591D01*
Y7575710D01*
X7020312D01*
Y7573153D01*
X7019034D01*
Y7570596D01*
X7017755D01*
Y7569318D01*
X7016477D01*
Y7566761D01*
X7015199D01*
Y7564204D01*
X7013920D01*
Y7562926D01*
X7012642D01*
Y7560369D01*
X7011363D01*
Y7557812D01*
X7010085D01*
Y7556534D01*
X7008806D01*
Y7553977D01*
X7007528D01*
Y7551420D01*
X7006250D01*
Y7550142D01*
X7004971D01*
Y7547585D01*
X7003693D01*
Y7545028D01*
X7002414D01*
Y7543750D01*
X7001136D01*
Y7541193D01*
X6999858D01*
Y7538636D01*
X6998579D01*
Y7536079D01*
X6997301D01*
Y7534801D01*
X6996022D01*
Y7532244D01*
X6994744D01*
Y7529687D01*
X6993466D01*
Y7528409D01*
X6992187D01*
Y7525852D01*
X6990909D01*
Y7523295D01*
X6989630D01*
Y7522017D01*
X6988352D01*
Y7519460D01*
X6987074D01*
Y7516903D01*
X6985795D01*
Y7515625D01*
X6984517D01*
Y7513068D01*
X6983238D01*
Y7510511D01*
X6981960D01*
Y7509233D01*
X6980681D01*
Y7506676D01*
X6979403D01*
Y7504119D01*
X6978125D01*
Y7502841D01*
X6976846D01*
Y7500284D01*
X6975568D01*
Y7497727D01*
X6974290D01*
Y7496449D01*
X6973011D01*
Y7493892D01*
X6971733D01*
Y7491335D01*
X6970454D01*
Y7490057D01*
X6969176D01*
Y7487500D01*
X6967897D01*
Y7484943D01*
X6966619D01*
Y7483665D01*
X6965341D01*
Y7481108D01*
X6964062D01*
Y7478551D01*
X6962784D01*
Y7477273D01*
X6961505D01*
Y7474716D01*
X6960227D01*
Y7472159D01*
X6958948D01*
Y7470880D01*
X6957670D01*
Y7468324D01*
X6956392D01*
Y7465767D01*
X6955113D01*
Y7464489D01*
X6953835D01*
Y7461932D01*
X6952557D01*
Y7459375D01*
X6951278D01*
Y7456818D01*
X6950000D01*
Y7454261D01*
X6948721D01*
Y7451704D01*
X6947443D01*
Y7446591D01*
X6946164D01*
Y7437642D01*
X6944886D01*
Y7435085D01*
X6946164D01*
Y7426136D01*
X6947443D01*
Y7423579D01*
X6948721D01*
Y7421022D01*
X6950000D01*
Y7418466D01*
X6951278D01*
Y7417187D01*
X6952557D01*
Y7415909D01*
X6953835D01*
Y7414631D01*
X6955113D01*
Y7413352D01*
X6957670D01*
Y7412074D01*
X6958948D01*
Y7410795D01*
X6962784D01*
Y7409517D01*
X6967897D01*
Y7408238D01*
X7581534D01*
Y7409517D01*
X7796307D01*
Y7410795D01*
X7800142D01*
Y7412074D01*
X7802699D01*
Y7413352D01*
X7805256D01*
Y7414631D01*
X7807812D01*
Y7415909D01*
X7809091D01*
Y7417187D01*
X7810369D01*
Y7418466D01*
X7811648D01*
Y7419744D01*
X7812926D01*
Y7421022D01*
X7814204D01*
Y7422301D01*
X7815483D01*
Y7424858D01*
X7816761D01*
Y7427415D01*
X7818040D01*
Y7432528D01*
X7819318D01*
Y7442755D01*
X7818040D01*
Y7447869D01*
X7816761D01*
Y7451704D01*
X7815483D01*
Y7454261D01*
X7814204D01*
Y7456818D01*
X7812926D01*
Y7458096D01*
X7811648D01*
Y7460653D01*
X7810369D01*
Y7463210D01*
X7809091D01*
Y7464489D01*
X7807812D01*
Y7467045D01*
X7806534D01*
Y7469602D01*
X7805256D01*
Y7470880D01*
X7803977D01*
Y7473437D01*
X7802699D01*
Y7475994D01*
X7801420D01*
Y7477273D01*
X7800142D01*
Y7479829D01*
X7798863D01*
Y7482386D01*
X7797585D01*
Y7483665D01*
X7796307D01*
Y7486222D01*
X7795028D01*
Y7488778D01*
X7793750D01*
Y7490057D01*
X7792472D01*
Y7492613D01*
X7791193D01*
Y7493892D01*
X7789915D01*
Y7496449D01*
X7788636D01*
Y7499006D01*
X7787358D01*
Y7500284D01*
X7786079D01*
Y7502841D01*
X7784801D01*
Y7505397D01*
X7783523D01*
Y7506676D01*
X7782244D01*
Y7509233D01*
X7780966D01*
Y7511790D01*
X7779688D01*
Y7513068D01*
X7778409D01*
Y7515625D01*
X7777130D01*
Y7518182D01*
X7775852D01*
Y7519460D01*
X7774574D01*
Y7522017D01*
X7773295D01*
Y7524574D01*
X7772017D01*
Y7525852D01*
X7770739D01*
Y7528409D01*
X7769460D01*
Y7530966D01*
X7768182D01*
Y7532244D01*
X7766903D01*
Y7534801D01*
X7765625D01*
Y7536079D01*
X7764346D01*
Y7538636D01*
X7763068D01*
Y7541193D01*
X7761790D01*
Y7542472D01*
X7760511D01*
Y7545028D01*
X7759233D01*
Y7547585D01*
X7757955D01*
Y7548863D01*
X7756676D01*
Y7551420D01*
X7755398D01*
Y7553977D01*
X7754119D01*
Y7555256D01*
X7752841D01*
Y7557812D01*
X7751562D01*
Y7560369D01*
X7750284D01*
Y7561648D01*
X7749006D01*
Y7564204D01*
X7747727D01*
Y7566761D01*
X7746449D01*
Y7568040D01*
X7745170D01*
Y7570596D01*
X7743892D01*
Y7573153D01*
X7742613D01*
Y7574432D01*
X7741335D01*
Y7576988D01*
X7740057D01*
Y7578267D01*
X7738778D01*
Y7580824D01*
X7737500D01*
Y7583381D01*
X7736222D01*
Y7584659D01*
X7734943D01*
Y7587216D01*
X7733665D01*
Y7589773D01*
X7732386D01*
Y7591051D01*
X7731108D01*
Y7593608D01*
X7729829D01*
Y7596165D01*
X7728551D01*
Y7597443D01*
X7727273D01*
Y7600000D01*
X7725994D01*
Y7602557D01*
X7724716D01*
Y7603835D01*
X7723437D01*
Y7606392D01*
X7722159D01*
Y7608949D01*
X7720881D01*
Y7610227D01*
X7719602D01*
Y7612784D01*
X7718324D01*
Y7614062D01*
X7717045D01*
Y7616619D01*
X7715767D01*
Y7619176D01*
X7714489D01*
Y7620454D01*
X7713210D01*
Y7623011D01*
X7711932D01*
Y7625568D01*
X7710653D01*
Y7626847D01*
X7709375D01*
Y7629403D01*
X7708097D01*
Y7631960D01*
X7706818D01*
Y7633238D01*
X7705540D01*
Y7635795D01*
X7704261D01*
Y7638352D01*
X7702983D01*
Y7639631D01*
X7701704D01*
Y7642187D01*
X7700426D01*
Y7644744D01*
X7699148D01*
Y7646023D01*
X7697869D01*
Y7648579D01*
X7696591D01*
Y7651136D01*
X7695312D01*
Y7652415D01*
X7694034D01*
Y7654971D01*
X7692756D01*
Y7656250D01*
X7691477D01*
Y7658807D01*
X7690199D01*
Y7661364D01*
X7688920D01*
Y7662642D01*
X7687642D01*
Y7665199D01*
X7686364D01*
Y7667756D01*
X7685085D01*
Y7669034D01*
X7683807D01*
Y7671591D01*
X7682528D01*
Y7674148D01*
X7681250D01*
Y7675426D01*
X7679971D01*
Y7677983D01*
X7678693D01*
Y7680540D01*
X7677415D01*
Y7681818D01*
X7676136D01*
Y7684375D01*
X7674858D01*
Y7686932D01*
X7673580D01*
Y7688210D01*
X7672301D01*
Y7690767D01*
X7671023D01*
Y7693324D01*
X7669744D01*
Y7694602D01*
X7668466D01*
Y7697159D01*
X7667187D01*
Y7698437D01*
X7665909D01*
Y7700994D01*
X7664631D01*
Y7703551D01*
X7663352D01*
Y7704829D01*
X7662074D01*
Y7707386D01*
X7660795D01*
Y7709943D01*
X7659517D01*
Y7711222D01*
X7658238D01*
Y7713778D01*
X7656960D01*
Y7716335D01*
X7655682D01*
Y7717613D01*
X7654403D01*
Y7720170D01*
X7653125D01*
Y7722727D01*
X7651847D01*
Y7724006D01*
X7650568D01*
Y7726562D01*
X7649290D01*
Y7729119D01*
X7648011D01*
Y7730398D01*
X7646733D01*
Y7732955D01*
X7645454D01*
Y7735511D01*
X7644176D01*
Y7736790D01*
X7642898D01*
Y7739346D01*
X7641619D01*
Y7740625D01*
X7640341D01*
Y7743182D01*
X7639062D01*
Y7745739D01*
X7637784D01*
Y7747017D01*
X7636505D01*
Y7749574D01*
X7635227D01*
Y7752131D01*
X7633949D01*
Y7753409D01*
X7632670D01*
Y7755966D01*
X7631392D01*
Y7758523D01*
X7630114D01*
Y7759801D01*
X7628835D01*
Y7762358D01*
X7627557D01*
Y7764915D01*
X7626278D01*
Y7766193D01*
X7625000D01*
Y7768750D01*
X7623721D01*
Y7771307D01*
X7622443D01*
Y7772585D01*
X7621165D01*
Y7775142D01*
X7619886D01*
Y7776420D01*
X7618608D01*
Y7778977D01*
X7617329D01*
Y7781534D01*
X7616051D01*
Y7782812D01*
X7614773D01*
Y7785369D01*
X7613494D01*
Y7787926D01*
X7612216D01*
Y7789204D01*
X7610937D01*
Y7791761D01*
X7609659D01*
Y7794318D01*
X7608381D01*
Y7795597D01*
X7607102D01*
Y7798153D01*
X7605824D01*
Y7800710D01*
X7604545D01*
Y7801988D01*
X7603267D01*
Y7804545D01*
X7601989D01*
Y7807102D01*
X7600710D01*
Y7808381D01*
X7599432D01*
Y7810937D01*
X7598153D01*
Y7813494D01*
X7596875D01*
Y7814773D01*
X7595596D01*
Y7817330D01*
X7594318D01*
Y7818608D01*
X7593040D01*
Y7821165D01*
X7591761D01*
Y7823721D01*
X7590483D01*
Y7825000D01*
X7589204D01*
Y7827557D01*
X7587926D01*
Y7830114D01*
X7586648D01*
Y7831392D01*
X7585369D01*
Y7833949D01*
X7584091D01*
Y7836506D01*
X7582812D01*
Y7837784D01*
X7581534D01*
Y7840341D01*
X7580256D01*
Y7842898D01*
X7578977D01*
Y7844176D01*
X7577699D01*
Y7846733D01*
X7576420D01*
Y7849290D01*
X7575142D01*
Y7850568D01*
X7573863D01*
Y7853125D01*
X7572585D01*
Y7855682D01*
X7571307D01*
Y7856960D01*
X7570028D01*
Y7859517D01*
X7568750D01*
Y7860795D01*
X7567472D01*
Y7863352D01*
X7566193D01*
Y7865909D01*
X7564915D01*
Y7867187D01*
X7563636D01*
Y7869744D01*
X7562358D01*
Y7872301D01*
X7561079D01*
Y7873579D01*
X7559801D01*
Y7876136D01*
X7558523D01*
Y7878693D01*
X7557244D01*
Y7879972D01*
X7555966D01*
Y7882528D01*
X7554687D01*
Y7885085D01*
X7553409D01*
Y7886364D01*
X7552130D01*
Y7888920D01*
X7550852D01*
Y7891477D01*
X7549574D01*
Y7892756D01*
X7548295D01*
Y7895312D01*
X7547017D01*
Y7896591D01*
X7545739D01*
Y7899148D01*
X7544460D01*
Y7901705D01*
X7543182D01*
Y7902983D01*
X7541903D01*
Y7905540D01*
X7540625D01*
Y7908096D01*
X7539346D01*
Y7909375D01*
X7538068D01*
Y7911932D01*
X7536790D01*
Y7914489D01*
X7535511D01*
Y7915767D01*
X7534233D01*
Y7918324D01*
X7532954D01*
Y7920881D01*
X7531676D01*
Y7922159D01*
X7530398D01*
Y7924716D01*
X7529119D01*
Y7927273D01*
X7527841D01*
Y7928551D01*
X7526562D01*
Y7931108D01*
X7525284D01*
Y7933665D01*
X7524006D01*
Y7934943D01*
X7522727D01*
Y7937500D01*
X7521449D01*
Y7938778D01*
X7520170D01*
Y7941335D01*
X7518892D01*
Y7943892D01*
X7517613D01*
Y7945171D01*
X7516335D01*
Y7947727D01*
X7515057D01*
Y7950284D01*
X7513778D01*
Y7951562D01*
X7512500D01*
Y7954119D01*
X7511221D01*
Y7956676D01*
X7509943D01*
Y7957955D01*
X7508665D01*
Y7960511D01*
X7507386D01*
Y7963068D01*
X7506108D01*
Y7964347D01*
X7504829D01*
Y7966903D01*
X7503551D01*
Y7969460D01*
X7502273D01*
Y7970739D01*
X7500994D01*
Y7973295D01*
X7499716D01*
Y7975852D01*
X7498437D01*
Y7977131D01*
X7497159D01*
Y7979687D01*
X7495881D01*
Y7980966D01*
X7494602D01*
Y7983523D01*
X7493324D01*
Y7986080D01*
X7492045D01*
Y7987358D01*
X7490767D01*
Y7989915D01*
X7489488D01*
Y7992472D01*
X7488210D01*
Y7993750D01*
X7486932D01*
Y7996307D01*
X7485653D01*
Y7998864D01*
X7484375D01*
Y8000142D01*
X7483097D01*
Y8002699D01*
X7481818D01*
Y8005256D01*
X7480540D01*
Y8006534D01*
X7479261D01*
Y8009091D01*
X7477983D01*
Y8011648D01*
X7476704D01*
Y8012926D01*
X7475426D01*
Y8015483D01*
X7474148D01*
Y8018040D01*
X7472869D01*
Y8019318D01*
X7471591D01*
Y8021875D01*
X7470312D01*
Y8023153D01*
X7469034D01*
Y8025710D01*
X7467755D01*
Y8028267D01*
X7466477D01*
Y8029546D01*
X7465199D01*
Y8032102D01*
X7463920D01*
Y8034659D01*
X7462642D01*
Y8035937D01*
X7461364D01*
Y8038494D01*
X7460085D01*
Y8041051D01*
X7458807D01*
Y8042330D01*
X7457528D01*
Y8044886D01*
X7456250D01*
Y8047443D01*
X7454971D01*
Y8048722D01*
X7453693D01*
Y8051278D01*
X7452415D01*
Y8053835D01*
X7451136D01*
Y8055114D01*
X7449858D01*
Y8057670D01*
X7448579D01*
Y8058949D01*
X7447301D01*
Y8061506D01*
X7446022D01*
Y8064063D01*
X7444744D01*
Y8065341D01*
X7443466D01*
Y8067898D01*
X7442187D01*
Y8070455D01*
X7440909D01*
Y8071733D01*
X7439631D01*
Y8074290D01*
X7438352D01*
Y8076847D01*
X7437074D01*
Y8078125D01*
X7435795D01*
Y8080682D01*
X7434517D01*
Y8083239D01*
X7433238D01*
Y8084517D01*
X7431960D01*
Y8087074D01*
X7430682D01*
Y8089631D01*
X7429403D01*
Y8090909D01*
X7428125D01*
Y8093466D01*
X7426846D01*
Y8096023D01*
X7425568D01*
Y8097301D01*
X7424290D01*
Y8099858D01*
X7423011D01*
Y8101136D01*
X7421733D01*
Y8103693D01*
X7420454D01*
Y8106250D01*
X7419176D01*
Y8107528D01*
X7417898D01*
Y8110085D01*
X7416619D01*
Y8112642D01*
X7415341D01*
Y8113921D01*
X7414062D01*
Y8116477D01*
X7412784D01*
Y8117756D01*
X7411505D01*
Y8119034D01*
X7410227D01*
Y8121591D01*
X7408949D01*
Y8122869D01*
X7407670D01*
Y8124148D01*
X7406392D01*
Y8125426D01*
X7405113D01*
Y8126705D01*
X7402557D01*
Y8127983D01*
X7401278D01*
Y8129261D01*
X7400000D01*
Y8130540D01*
X7397443D01*
Y8131818D01*
X7394886D01*
Y8133097D01*
X7392329D01*
Y8134375D01*
X7388494D01*
Y8135654D01*
X7380824D01*
Y8136932D01*
D02*
G37*
%LPD*%
G36*
Y8035938D02*
X7382102D01*
Y8034659D01*
X7383380D01*
Y8032102D01*
X7384659D01*
Y8029546D01*
X7385937D01*
Y8028267D01*
X7387216D01*
Y8025710D01*
X7388494D01*
Y8024432D01*
X7389773D01*
Y8021875D01*
X7391051D01*
Y8019318D01*
X7392329D01*
Y8018040D01*
X7393608D01*
Y8015483D01*
X7394886D01*
Y8012926D01*
X7396165D01*
Y8011648D01*
X7397443D01*
Y8009091D01*
X7398721D01*
Y8006534D01*
X7400000D01*
Y8005256D01*
X7401278D01*
Y8002699D01*
X7402557D01*
Y8000142D01*
X7403835D01*
Y7998864D01*
X7405113D01*
Y7996307D01*
X7406392D01*
Y7993750D01*
X7407670D01*
Y7992472D01*
X7408949D01*
Y7989915D01*
X7410227D01*
Y7988637D01*
X7411505D01*
Y7986080D01*
X7412784D01*
Y7983523D01*
X7414062D01*
Y7982244D01*
X7415341D01*
Y7979688D01*
X7416619D01*
Y7977131D01*
X7417898D01*
Y7975852D01*
X7419176D01*
Y7973295D01*
X7420454D01*
Y7970739D01*
X7421733D01*
Y7969460D01*
X7423011D01*
Y7966904D01*
X7424290D01*
Y7964347D01*
X7425568D01*
Y7963068D01*
X7426846D01*
Y7960511D01*
X7428125D01*
Y7957955D01*
X7429403D01*
Y7956676D01*
X7430682D01*
Y7954119D01*
X7431960D01*
Y7952841D01*
X7433238D01*
Y7950284D01*
X7434517D01*
Y7947727D01*
X7435795D01*
Y7946449D01*
X7437074D01*
Y7943892D01*
X7438352D01*
Y7941335D01*
X7439631D01*
Y7940057D01*
X7440909D01*
Y7937500D01*
X7442187D01*
Y7934943D01*
X7443466D01*
Y7933665D01*
X7444744D01*
Y7931108D01*
X7446022D01*
Y7928551D01*
X7447301D01*
Y7927273D01*
X7448579D01*
Y7924716D01*
X7449858D01*
Y7922159D01*
X7451136D01*
Y7920881D01*
X7452415D01*
Y7918324D01*
X7453693D01*
Y7915767D01*
X7454971D01*
Y7914489D01*
X7456250D01*
Y7911932D01*
X7457528D01*
Y7910653D01*
X7458807D01*
Y7908097D01*
X7460085D01*
Y7905540D01*
X7461364D01*
Y7904262D01*
X7462642D01*
Y7901705D01*
X7463920D01*
Y7899148D01*
X7465199D01*
Y7897869D01*
X7466477D01*
Y7895313D01*
X7467755D01*
Y7892756D01*
X7469034D01*
Y7891477D01*
X7470312D01*
Y7888920D01*
X7471591D01*
Y7886364D01*
X7472869D01*
Y7885085D01*
X7474148D01*
Y7882529D01*
X7475426D01*
Y7879972D01*
X7476704D01*
Y7878693D01*
X7477983D01*
Y7876136D01*
X7479261D01*
Y7874858D01*
X7480540D01*
Y7872301D01*
X7481818D01*
Y7869744D01*
X7483097D01*
Y7868466D01*
X7484375D01*
Y7865909D01*
X7485653D01*
Y7863352D01*
X7486932D01*
Y7862074D01*
X7488210D01*
Y7859517D01*
X7489488D01*
Y7856960D01*
X7490767D01*
Y7855682D01*
X7492045D01*
Y7853125D01*
X7493324D01*
Y7850568D01*
X7494602D01*
Y7849290D01*
X7495881D01*
Y7846733D01*
X7497159D01*
Y7844176D01*
X7498437D01*
Y7842898D01*
X7499716D01*
Y7840341D01*
X7500994D01*
Y7839063D01*
X7502273D01*
Y7836506D01*
X7503551D01*
Y7833949D01*
X7504829D01*
Y7832671D01*
X7506108D01*
Y7830114D01*
X7507386D01*
Y7827557D01*
X7508665D01*
Y7826278D01*
X7509943D01*
Y7823722D01*
X7511221D01*
Y7821165D01*
X7512500D01*
Y7819886D01*
X7513778D01*
Y7817330D01*
X7515057D01*
Y7814773D01*
X7516335D01*
Y7813494D01*
X7517613D01*
Y7810938D01*
X7518892D01*
Y7808381D01*
X7520170D01*
Y7807102D01*
X7521449D01*
Y7804545D01*
X7522727D01*
Y7801989D01*
X7524006D01*
Y7800710D01*
X7525284D01*
Y7798154D01*
X7526562D01*
Y7796875D01*
X7527841D01*
Y7794318D01*
X7529119D01*
Y7791761D01*
X7530398D01*
Y7790483D01*
X7531676D01*
Y7787926D01*
X7532954D01*
Y7785369D01*
X7534233D01*
Y7784091D01*
X7535511D01*
Y7781534D01*
X7536790D01*
Y7778977D01*
X7538068D01*
Y7777699D01*
X7539346D01*
Y7775142D01*
X7540625D01*
Y7772585D01*
X7541903D01*
Y7771307D01*
X7543182D01*
Y7768750D01*
X7544460D01*
Y7766193D01*
X7545739D01*
Y7764915D01*
X7547017D01*
Y7762358D01*
X7548295D01*
Y7761079D01*
X7549574D01*
Y7758523D01*
X7550852D01*
Y7755966D01*
X7552130D01*
Y7754688D01*
X7553409D01*
Y7752131D01*
X7554687D01*
Y7749574D01*
X7555966D01*
Y7748295D01*
X7557244D01*
Y7745739D01*
X7558523D01*
Y7743182D01*
X7559801D01*
Y7741903D01*
X7561079D01*
Y7739347D01*
X7562358D01*
Y7736790D01*
X7563636D01*
Y7735511D01*
X7564915D01*
Y7732955D01*
X7566193D01*
Y7730398D01*
X7567472D01*
Y7729119D01*
X7568750D01*
Y7726563D01*
X7570028D01*
Y7725284D01*
X7571307D01*
Y7722727D01*
X7572585D01*
Y7720170D01*
X7573863D01*
Y7718892D01*
X7575142D01*
Y7716335D01*
X7576420D01*
Y7713778D01*
X7577699D01*
Y7712500D01*
X7578977D01*
Y7709943D01*
X7580256D01*
Y7707386D01*
X7581534D01*
Y7706108D01*
X7582812D01*
Y7703551D01*
X7584091D01*
Y7700994D01*
X7585369D01*
Y7698437D01*
X7586648D01*
Y7697159D01*
X7587926D01*
Y7694602D01*
X7589204D01*
Y7692046D01*
X7590483D01*
Y7690767D01*
X7591761D01*
Y7688210D01*
X7593040D01*
Y7685653D01*
X7594318D01*
Y7683097D01*
X7595596D01*
Y7681818D01*
X7596875D01*
Y7680540D01*
Y7679262D01*
X7598153D01*
Y7676704D01*
X7599432D01*
Y7675426D01*
X7600710D01*
Y7672869D01*
X7601989D01*
Y7670313D01*
X7603267D01*
Y7667756D01*
X7604545D01*
Y7666477D01*
X7605824D01*
Y7663920D01*
X7607102D01*
Y7661364D01*
X7608381D01*
Y7660085D01*
X7609659D01*
Y7657528D01*
X7610937D01*
Y7654972D01*
X7612216D01*
Y7652415D01*
X7613494D01*
Y7651136D01*
X7614773D01*
Y7648580D01*
X7616051D01*
Y7646023D01*
X7617329D01*
Y7643466D01*
X7618608D01*
Y7642187D01*
X7619886D01*
Y7639631D01*
X7621165D01*
Y7637074D01*
X7622443D01*
Y7635795D01*
X7623721D01*
Y7633239D01*
X7625000D01*
Y7630682D01*
X7626278D01*
Y7628125D01*
X7627557D01*
Y7626847D01*
X7628835D01*
Y7624290D01*
X7630114D01*
Y7621733D01*
X7631392D01*
Y7620455D01*
X7632670D01*
Y7617898D01*
X7633949D01*
Y7615341D01*
X7635227D01*
Y7612784D01*
X7636505D01*
Y7611506D01*
X7637784D01*
Y7608949D01*
X7639062D01*
Y7606392D01*
X7640341D01*
Y7605114D01*
X7641619D01*
Y7602557D01*
X7642898D01*
Y7600000D01*
X7644176D01*
Y7597443D01*
X7645454D01*
Y7596165D01*
X7646733D01*
Y7593608D01*
X7648011D01*
Y7591051D01*
X7649290D01*
Y7588494D01*
X7650568D01*
Y7587216D01*
X7651847D01*
Y7584659D01*
X7653125D01*
Y7582102D01*
X7654403D01*
Y7580824D01*
X7655682D01*
Y7578267D01*
X7656960D01*
Y7575710D01*
X7658238D01*
Y7573154D01*
X7659517D01*
Y7571875D01*
X7660795D01*
Y7569318D01*
X7662074D01*
Y7566761D01*
X7663352D01*
Y7565483D01*
X7664631D01*
Y7562926D01*
X7665909D01*
Y7560369D01*
X7667187D01*
Y7557812D01*
X7668466D01*
Y7556534D01*
X7669744D01*
Y7553977D01*
X7671023D01*
Y7551421D01*
X7672301D01*
Y7550142D01*
X7673580D01*
Y7547585D01*
X7674858D01*
Y7545028D01*
X7676136D01*
Y7542472D01*
X7677415D01*
Y7541193D01*
X7678693D01*
Y7538636D01*
X7679971D01*
Y7536079D01*
X7681250D01*
Y7534801D01*
X7682528D01*
Y7532244D01*
X7683807D01*
Y7529688D01*
X7685085D01*
Y7527131D01*
X7686364D01*
Y7525852D01*
X7687642D01*
Y7523295D01*
X7688920D01*
Y7520739D01*
X7690199D01*
Y7518182D01*
X7691477D01*
Y7516903D01*
X7692756D01*
Y7514347D01*
X7694034D01*
Y7511790D01*
X7695312D01*
Y7510511D01*
X7639062D01*
Y7509233D01*
X7489488D01*
Y7507955D01*
X7339914D01*
Y7506676D01*
X7269602D01*
Y7507955D01*
X7137926D01*
Y7509233D01*
X7071449D01*
Y7510511D01*
X7072727D01*
Y7513068D01*
X7074005D01*
Y7515625D01*
X7075284D01*
Y7516903D01*
X7076562D01*
Y7519460D01*
X7077841D01*
Y7522017D01*
X7079119D01*
Y7523295D01*
X7080398D01*
Y7525852D01*
X7081676D01*
Y7528409D01*
X7082954D01*
Y7530966D01*
X7084233D01*
Y7532244D01*
X7085511D01*
Y7534801D01*
X7086789D01*
Y7537358D01*
X7088068D01*
Y7539915D01*
X7089346D01*
Y7541193D01*
X7090625D01*
Y7543750D01*
X7091903D01*
Y7546307D01*
X7093182D01*
Y7548864D01*
X7094460D01*
Y7550142D01*
X7095738D01*
Y7552699D01*
X7097017D01*
Y7555256D01*
X7098295D01*
Y7557812D01*
X7099574D01*
Y7559091D01*
X7100852D01*
Y7561648D01*
X7102130D01*
Y7564205D01*
X7103409D01*
Y7566761D01*
X7104687D01*
Y7568040D01*
X7105966D01*
Y7570596D01*
X7107244D01*
Y7573154D01*
X7108522D01*
Y7575710D01*
X7109801D01*
Y7576989D01*
X7111079D01*
Y7579545D01*
X7112358D01*
Y7582102D01*
X7113636D01*
Y7584659D01*
X7114914D01*
Y7585938D01*
X7116193D01*
Y7588494D01*
X7117471D01*
Y7591051D01*
X7118750D01*
Y7593608D01*
X7120028D01*
Y7594886D01*
X7121307D01*
Y7597443D01*
X7122585D01*
Y7600000D01*
X7123863D01*
Y7602557D01*
X7125142D01*
Y7603835D01*
X7126420D01*
Y7606392D01*
X7127699D01*
Y7608949D01*
X7128977D01*
Y7611506D01*
X7130255D01*
Y7612784D01*
X7131534D01*
Y7615341D01*
X7132812D01*
Y7617898D01*
X7134091D01*
Y7620455D01*
X7135369D01*
Y7621733D01*
X7136647D01*
Y7624290D01*
X7137926D01*
Y7626847D01*
X7139204D01*
Y7629403D01*
X7140483D01*
Y7630682D01*
X7141761D01*
Y7633239D01*
X7143040D01*
Y7635795D01*
X7144318D01*
Y7638352D01*
X7145596D01*
Y7639631D01*
X7146875D01*
Y7642187D01*
X7148153D01*
Y7644744D01*
X7149431D01*
Y7647301D01*
X7150710D01*
Y7648580D01*
X7151988D01*
Y7651136D01*
X7153267D01*
Y7653693D01*
X7154545D01*
Y7656250D01*
X7155824D01*
Y7657528D01*
X7157102D01*
Y7660085D01*
X7158380D01*
Y7662642D01*
X7159659D01*
Y7665199D01*
X7160937D01*
Y7666477D01*
X7162216D01*
Y7669034D01*
X7163494D01*
Y7671591D01*
X7164773D01*
Y7674148D01*
X7166051D01*
Y7675426D01*
X7167329D01*
Y7677983D01*
X7168608D01*
Y7680540D01*
X7169886D01*
Y7683097D01*
X7171164D01*
Y7684375D01*
X7172443D01*
Y7686932D01*
X7173721D01*
Y7689489D01*
X7175000D01*
Y7692046D01*
X7176278D01*
Y7693324D01*
X7177557D01*
Y7695881D01*
X7178835D01*
Y7698437D01*
X7180113D01*
Y7700994D01*
X7181392D01*
Y7702273D01*
X7182670D01*
Y7704830D01*
X7183949D01*
Y7707386D01*
X7185227D01*
Y7709943D01*
X7186505D01*
Y7711222D01*
X7187784D01*
Y7713778D01*
X7189062D01*
Y7716335D01*
X7190341D01*
Y7718892D01*
X7191619D01*
Y7720170D01*
X7192897D01*
Y7722727D01*
X7194176D01*
Y7725284D01*
X7195454D01*
Y7727841D01*
X7196733D01*
Y7729119D01*
X7198011D01*
Y7731676D01*
X7199290D01*
Y7734233D01*
X7200568D01*
Y7736790D01*
X7201846D01*
Y7738068D01*
X7203125D01*
Y7740625D01*
X7204403D01*
Y7743182D01*
X7205682D01*
Y7744460D01*
X7206960D01*
Y7747017D01*
X7208238D01*
Y7749574D01*
X7209517D01*
Y7752131D01*
X7210795D01*
Y7753409D01*
X7212074D01*
Y7755966D01*
X7213352D01*
Y7758523D01*
X7214630D01*
Y7761079D01*
X7215909D01*
Y7762358D01*
X7217187D01*
Y7764915D01*
X7218466D01*
Y7767472D01*
X7219744D01*
Y7770028D01*
X7221022D01*
Y7771307D01*
X7222301D01*
Y7773864D01*
X7223579D01*
Y7776421D01*
X7224858D01*
Y7778977D01*
X7226136D01*
Y7780256D01*
X7227415D01*
Y7782812D01*
X7228693D01*
Y7785369D01*
X7229971D01*
Y7787926D01*
X7231250D01*
Y7789205D01*
X7232528D01*
Y7791761D01*
X7233806D01*
Y7794318D01*
X7235085D01*
Y7796875D01*
X7236363D01*
Y7798154D01*
X7237642D01*
Y7800710D01*
X7238920D01*
Y7803267D01*
X7240199D01*
Y7805824D01*
X7241477D01*
Y7807102D01*
X7242755D01*
Y7809659D01*
X7244034D01*
Y7812216D01*
X7245312D01*
Y7814773D01*
X7246591D01*
Y7816051D01*
X7247869D01*
Y7818608D01*
X7249148D01*
Y7821165D01*
X7250426D01*
Y7823722D01*
X7251704D01*
Y7825000D01*
X7252983D01*
Y7827557D01*
X7254261D01*
Y7830114D01*
X7255539D01*
Y7832671D01*
X7256818D01*
Y7833949D01*
X7258096D01*
Y7836506D01*
X7259375D01*
Y7839063D01*
X7260653D01*
Y7841619D01*
X7261932D01*
Y7842898D01*
X7263210D01*
Y7845455D01*
X7264488D01*
Y7848011D01*
X7265767D01*
Y7849290D01*
X7267045D01*
Y7851847D01*
X7268324D01*
Y7854403D01*
X7269602D01*
Y7855682D01*
X7270881D01*
Y7858239D01*
X7272159D01*
Y7860796D01*
X7273437D01*
Y7862074D01*
X7274716D01*
Y7864631D01*
X7275994D01*
Y7867187D01*
X7277272D01*
Y7868466D01*
X7278551D01*
Y7871023D01*
X7279829D01*
Y7873580D01*
X7281108D01*
Y7876136D01*
X7282386D01*
Y7877415D01*
X7283665D01*
Y7879972D01*
X7284943D01*
Y7882529D01*
X7286221D01*
Y7883807D01*
X7287500D01*
Y7886364D01*
X7288778D01*
Y7888920D01*
X7290057D01*
Y7890199D01*
X7291335D01*
Y7892756D01*
X7292613D01*
Y7895313D01*
X7293892D01*
Y7896591D01*
X7295170D01*
Y7899148D01*
X7296449D01*
Y7901705D01*
X7297727D01*
Y7902983D01*
X7299005D01*
Y7905540D01*
X7300284D01*
Y7908097D01*
X7301562D01*
Y7909375D01*
X7302841D01*
Y7911932D01*
X7304119D01*
Y7914489D01*
X7305398D01*
Y7915767D01*
X7306676D01*
Y7918324D01*
X7307954D01*
Y7920881D01*
X7309233D01*
Y7922159D01*
X7310511D01*
Y7924716D01*
X7311790D01*
Y7927273D01*
X7313068D01*
Y7928551D01*
X7314346D01*
Y7931108D01*
X7315625D01*
Y7933665D01*
X7316903D01*
Y7934943D01*
X7318182D01*
Y7937500D01*
X7319460D01*
Y7940057D01*
X7320738D01*
Y7941335D01*
X7322017D01*
Y7943892D01*
X7323295D01*
Y7946449D01*
X7324574D01*
Y7947727D01*
X7325852D01*
Y7950284D01*
X7327130D01*
Y7952841D01*
X7328409D01*
Y7954119D01*
X7329687D01*
Y7956676D01*
X7330966D01*
Y7959233D01*
X7332244D01*
Y7960511D01*
X7333523D01*
Y7963068D01*
X7334801D01*
Y7965625D01*
X7336079D01*
Y7966904D01*
X7337358D01*
Y7969460D01*
X7338636D01*
Y7972017D01*
X7339914D01*
Y7973295D01*
X7341193D01*
Y7975852D01*
X7342471D01*
Y7978409D01*
X7343750D01*
Y7979688D01*
X7345028D01*
Y7982244D01*
X7346307D01*
Y7984801D01*
X7347585D01*
Y7987358D01*
X7348863D01*
Y7988637D01*
X7350142D01*
Y7991193D01*
X7351420D01*
Y7993750D01*
X7352699D01*
Y7995028D01*
X7353977D01*
Y7997585D01*
X7355256D01*
Y8000142D01*
X7356534D01*
Y8001421D01*
X7357812D01*
Y8003977D01*
X7359091D01*
Y8006534D01*
X7360369D01*
Y8007813D01*
X7361647D01*
Y8010370D01*
X7362926D01*
Y8012926D01*
X7364204D01*
Y8014205D01*
X7365483D01*
Y8016761D01*
X7366761D01*
Y8019318D01*
X7368040D01*
Y8020597D01*
X7369318D01*
Y8023154D01*
X7370596D01*
Y8025710D01*
X7371875D01*
Y8026989D01*
X7373153D01*
Y8029546D01*
X7374432D01*
Y8032102D01*
X7375710D01*
Y8033381D01*
X7376989D01*
Y8035938D01*
X7378267D01*
Y8038494D01*
X7380824D01*
Y8035938D01*
D02*
G37*
%LPC*%
G36*
X7400000Y7600000D02*
X7398721D01*
Y7598722D01*
X7400000D01*
Y7600000D01*
D02*
G37*
G36*
X7407670Y7919602D02*
X7379545D01*
Y7918324D01*
X7356534D01*
Y7917046D01*
X7355256D01*
Y7913210D01*
X7353977D01*
Y7910653D01*
X7352699D01*
Y7906818D01*
X7351420D01*
Y7904262D01*
X7350142D01*
Y7900426D01*
X7348863D01*
Y7897869D01*
X7347585D01*
Y7895313D01*
X7346307D01*
Y7891477D01*
X7345028D01*
Y7888920D01*
X7343750D01*
Y7885085D01*
X7342471D01*
Y7882529D01*
X7341193D01*
Y7878693D01*
X7339914D01*
Y7876136D01*
X7338636D01*
Y7872301D01*
X7337358D01*
Y7869744D01*
X7336079D01*
Y7867187D01*
X7334801D01*
Y7863352D01*
X7333523D01*
Y7860796D01*
X7332244D01*
Y7856960D01*
X7330966D01*
Y7854403D01*
X7329687D01*
Y7850568D01*
X7328409D01*
Y7848011D01*
X7327130D01*
Y7844176D01*
X7325852D01*
Y7841619D01*
X7324574D01*
Y7839063D01*
X7323295D01*
Y7835227D01*
X7322017D01*
Y7832671D01*
X7320738D01*
Y7828835D01*
X7319460D01*
Y7826278D01*
X7318182D01*
Y7822443D01*
X7316903D01*
Y7819886D01*
X7315625D01*
Y7816051D01*
X7314346D01*
Y7813494D01*
X7313068D01*
Y7810938D01*
X7311790D01*
Y7807102D01*
X7310511D01*
Y7804545D01*
X7309233D01*
Y7800710D01*
X7307954D01*
Y7798154D01*
X7306676D01*
Y7794318D01*
X7305398D01*
Y7791761D01*
X7304119D01*
Y7787926D01*
X7302841D01*
Y7785369D01*
X7301562D01*
Y7782812D01*
X7300284D01*
Y7778977D01*
X7299005D01*
Y7776421D01*
X7297727D01*
Y7772585D01*
X7296449D01*
Y7770028D01*
X7295170D01*
Y7766193D01*
X7293892D01*
Y7763636D01*
X7292613D01*
Y7759801D01*
X7291335D01*
Y7757244D01*
X7290057D01*
Y7754688D01*
X7288778D01*
Y7750852D01*
X7287500D01*
Y7748295D01*
X7286221D01*
Y7744460D01*
X7284943D01*
Y7741903D01*
X7283665D01*
Y7738068D01*
X7282386D01*
Y7735511D01*
X7281108D01*
Y7731676D01*
X7279829D01*
Y7729119D01*
X7278551D01*
Y7726563D01*
X7277272D01*
Y7722727D01*
X7275994D01*
Y7720170D01*
X7274716D01*
Y7716335D01*
X7273437D01*
Y7713778D01*
X7272159D01*
Y7709943D01*
X7270881D01*
Y7707386D01*
X7269602D01*
Y7703551D01*
X7268324D01*
Y7700994D01*
X7267045D01*
Y7698437D01*
X7265767D01*
Y7694602D01*
X7264488D01*
Y7692046D01*
X7263210D01*
Y7688210D01*
X7261932D01*
Y7685653D01*
X7260653D01*
Y7681818D01*
X7259375D01*
Y7679262D01*
X7260653D01*
Y7680540D01*
X7264488D01*
Y7681818D01*
X7268324D01*
Y7683097D01*
X7272159D01*
Y7684375D01*
X7275994D01*
Y7685653D01*
X7279829D01*
Y7686932D01*
X7282386D01*
Y7688210D01*
X7286221D01*
Y7689489D01*
X7290057D01*
Y7690767D01*
X7293892D01*
Y7692046D01*
X7297727D01*
Y7693324D01*
X7301562D01*
Y7694602D01*
X7305398D01*
Y7695881D01*
X7309233D01*
Y7697159D01*
X7313068D01*
Y7698437D01*
X7316903D01*
Y7699716D01*
X7320738D01*
Y7700994D01*
X7324574D01*
Y7702273D01*
X7328409D01*
Y7703551D01*
X7332244D01*
Y7704830D01*
X7336079D01*
Y7706108D01*
X7338636D01*
Y7707386D01*
X7342471D01*
Y7708665D01*
X7346307D01*
Y7709943D01*
X7350142D01*
Y7711222D01*
X7353977D01*
Y7712500D01*
X7357812D01*
Y7713778D01*
X7361647D01*
Y7715057D01*
X7365483D01*
Y7716335D01*
X7369318D01*
Y7717614D01*
X7373153D01*
Y7718892D01*
X7376989D01*
Y7720170D01*
X7380824D01*
Y7721449D01*
X7384659D01*
Y7722727D01*
X7388494D01*
Y7724006D01*
X7392329D01*
Y7725284D01*
X7396165D01*
Y7724006D01*
X7394886D01*
Y7718892D01*
X7393608D01*
Y7713778D01*
X7392329D01*
Y7709943D01*
X7391051D01*
Y7704830D01*
X7389773D01*
Y7699716D01*
X7388494D01*
Y7694602D01*
X7387216D01*
Y7690767D01*
X7385937D01*
Y7685653D01*
X7384659D01*
Y7680540D01*
X7383380D01*
Y7676704D01*
X7382102D01*
Y7671591D01*
X7380824D01*
Y7666477D01*
X7379545D01*
Y7661364D01*
X7378267D01*
Y7657528D01*
X7376989D01*
Y7652415D01*
X7375710D01*
Y7651136D01*
Y7647301D01*
X7374432D01*
Y7643466D01*
X7373153D01*
Y7638352D01*
X7371875D01*
Y7633239D01*
X7370596D01*
Y7628125D01*
X7369318D01*
Y7624290D01*
X7368040D01*
Y7619176D01*
X7366761D01*
Y7614062D01*
X7365483D01*
Y7610227D01*
X7364204D01*
Y7605114D01*
X7362926D01*
Y7600000D01*
X7361647D01*
Y7594886D01*
X7360369D01*
Y7593608D01*
X7359091D01*
Y7594886D01*
X7357812D01*
Y7596165D01*
X7356534D01*
Y7597443D01*
X7355256D01*
Y7598722D01*
X7352699D01*
Y7600000D01*
X7351420D01*
Y7601278D01*
X7350142D01*
Y7602557D01*
X7347585D01*
Y7603835D01*
X7346307D01*
Y7605114D01*
X7345028D01*
Y7606392D01*
X7343750D01*
Y7607671D01*
X7341193D01*
Y7608949D01*
X7339914D01*
Y7610227D01*
X7338636D01*
Y7611506D01*
X7337358D01*
Y7607671D01*
X7338636D01*
Y7600000D01*
X7339914D01*
Y7591051D01*
X7341193D01*
Y7583381D01*
X7342471D01*
Y7575710D01*
X7343750D01*
Y7568040D01*
X7345028D01*
Y7560369D01*
X7346307D01*
Y7552699D01*
X7347585D01*
Y7545028D01*
X7348863D01*
Y7539915D01*
X7350142D01*
Y7541193D01*
X7351420D01*
Y7542472D01*
X7352699D01*
Y7543750D01*
X7353977D01*
Y7546307D01*
X7355256D01*
Y7547585D01*
X7356534D01*
Y7548864D01*
X7357812D01*
Y7550142D01*
X7359091D01*
Y7551421D01*
X7360369D01*
Y7552699D01*
X7361647D01*
Y7555256D01*
X7362926D01*
Y7556534D01*
X7364204D01*
Y7557812D01*
X7365483D01*
Y7559091D01*
X7366761D01*
Y7560369D01*
X7368040D01*
Y7561648D01*
X7369318D01*
Y7564205D01*
X7370596D01*
Y7565483D01*
X7371875D01*
Y7566761D01*
X7373153D01*
Y7568040D01*
X7374432D01*
Y7569318D01*
X7375710D01*
Y7570596D01*
X7376989D01*
Y7573154D01*
X7378267D01*
Y7574432D01*
X7379545D01*
Y7575710D01*
X7380824D01*
Y7576989D01*
X7382102D01*
Y7578267D01*
X7383380D01*
Y7580824D01*
X7384659D01*
Y7582102D01*
X7385937D01*
Y7583381D01*
X7387216D01*
Y7584659D01*
X7388494D01*
Y7585938D01*
X7389773D01*
Y7587216D01*
X7391051D01*
Y7589773D01*
X7392329D01*
Y7591051D01*
X7393608D01*
Y7592329D01*
X7394886D01*
Y7593608D01*
X7396165D01*
Y7594886D01*
X7397443D01*
Y7596165D01*
X7398721D01*
Y7598722D01*
X7393608D01*
Y7597443D01*
X7388494D01*
Y7596165D01*
X7383380D01*
Y7594886D01*
X7378267D01*
Y7593608D01*
X7371875D01*
Y7592329D01*
X7369318D01*
Y7594886D01*
X7370596D01*
Y7598722D01*
X7371875D01*
Y7601278D01*
X7373153D01*
Y7603835D01*
X7374432D01*
Y7606392D01*
X7375710D01*
Y7608949D01*
X7376989D01*
Y7611506D01*
X7378267D01*
Y7614062D01*
X7379545D01*
Y7617898D01*
X7380824D01*
Y7620455D01*
X7382102D01*
Y7623011D01*
X7383380D01*
Y7625568D01*
X7384659D01*
Y7628125D01*
X7385937D01*
Y7630682D01*
X7387216D01*
Y7633239D01*
X7388494D01*
Y7637074D01*
X7389773D01*
Y7639631D01*
X7391051D01*
Y7642187D01*
X7392329D01*
Y7644744D01*
X7393608D01*
Y7647301D01*
X7394886D01*
Y7649858D01*
X7396165D01*
Y7652415D01*
X7397443D01*
Y7656250D01*
X7398721D01*
Y7658807D01*
X7400000D01*
Y7661364D01*
X7401278D01*
Y7663920D01*
X7402557D01*
Y7666477D01*
X7403835D01*
Y7669034D01*
X7405113D01*
Y7671591D01*
X7406392D01*
Y7675426D01*
X7407670D01*
Y7677983D01*
X7408949D01*
Y7680540D01*
X7410227D01*
Y7683097D01*
X7411505D01*
Y7685653D01*
X7412784D01*
Y7688210D01*
X7414062D01*
Y7690767D01*
X7415341D01*
Y7694602D01*
X7416619D01*
Y7697159D01*
X7417898D01*
Y7699716D01*
X7419176D01*
Y7702273D01*
X7420454D01*
Y7704830D01*
X7421733D01*
Y7707386D01*
X7423011D01*
Y7709943D01*
X7424290D01*
Y7713778D01*
X7425568D01*
Y7716335D01*
X7426846D01*
Y7718892D01*
X7428125D01*
Y7721449D01*
X7429403D01*
Y7724006D01*
X7430682D01*
Y7726563D01*
X7431960D01*
Y7729119D01*
X7433238D01*
Y7732955D01*
X7434517D01*
Y7735511D01*
X7435795D01*
Y7738068D01*
X7437074D01*
Y7740625D01*
X7438352D01*
Y7743182D01*
X7439631D01*
Y7745739D01*
X7440909D01*
Y7748295D01*
X7442187D01*
Y7752131D01*
X7443466D01*
Y7754688D01*
X7444744D01*
Y7757244D01*
X7446022D01*
Y7759801D01*
X7447301D01*
Y7762358D01*
X7448579D01*
Y7764915D01*
X7444744D01*
Y7763636D01*
X7440909D01*
Y7762358D01*
X7437074D01*
Y7761079D01*
X7431960D01*
Y7759801D01*
X7428125D01*
Y7758523D01*
X7424290D01*
Y7757244D01*
X7420454D01*
Y7755966D01*
X7415341D01*
Y7754688D01*
X7411505D01*
Y7753409D01*
X7407670D01*
Y7752131D01*
X7403835D01*
Y7750852D01*
X7398721D01*
Y7749574D01*
X7394886D01*
Y7748295D01*
X7391051D01*
Y7747017D01*
X7387216D01*
Y7745739D01*
X7382102D01*
Y7744460D01*
X7378267D01*
Y7743182D01*
X7374432D01*
Y7741903D01*
X7370596D01*
Y7740625D01*
X7365483D01*
Y7739347D01*
X7361647D01*
Y7738068D01*
X7357812D01*
Y7736790D01*
X7353977D01*
Y7735511D01*
X7350142D01*
Y7734233D01*
X7345028D01*
Y7732955D01*
X7341193D01*
Y7731676D01*
X7337358D01*
Y7730398D01*
X7333523D01*
Y7729119D01*
X7328409D01*
Y7727841D01*
X7324574D01*
Y7726563D01*
X7320738D01*
Y7725284D01*
X7316903D01*
Y7724006D01*
X7311790D01*
Y7722727D01*
X7307954D01*
Y7721449D01*
X7304119D01*
Y7724006D01*
X7305398D01*
Y7726563D01*
X7306676D01*
Y7729119D01*
X7307954D01*
Y7731676D01*
X7309233D01*
Y7734233D01*
X7310511D01*
Y7735511D01*
X7311790D01*
Y7738068D01*
X7313068D01*
Y7740625D01*
X7314346D01*
Y7743182D01*
X7315625D01*
Y7745739D01*
X7316903D01*
Y7748295D01*
X7318182D01*
Y7750852D01*
X7319460D01*
Y7753409D01*
X7320738D01*
Y7754688D01*
X7322017D01*
Y7757244D01*
X7323295D01*
Y7759801D01*
X7324574D01*
Y7762358D01*
X7325852D01*
Y7764915D01*
X7327130D01*
Y7767472D01*
X7328409D01*
Y7770028D01*
X7329687D01*
Y7772585D01*
X7330966D01*
Y7775142D01*
X7332244D01*
Y7776421D01*
X7333523D01*
Y7778977D01*
X7334801D01*
Y7781534D01*
X7336079D01*
Y7784091D01*
X7337358D01*
Y7786648D01*
X7338636D01*
Y7789205D01*
X7339914D01*
Y7791761D01*
X7341193D01*
Y7794318D01*
X7342471D01*
Y7796875D01*
X7343750D01*
Y7798154D01*
X7345028D01*
Y7800710D01*
X7346307D01*
Y7803267D01*
X7347585D01*
Y7805824D01*
X7348863D01*
Y7808381D01*
X7350142D01*
Y7810938D01*
X7351420D01*
Y7813494D01*
X7352699D01*
Y7816051D01*
X7353977D01*
Y7817330D01*
X7355256D01*
Y7819886D01*
X7356534D01*
Y7822443D01*
X7357812D01*
Y7825000D01*
X7359091D01*
Y7827557D01*
X7360369D01*
Y7830114D01*
X7361647D01*
Y7832671D01*
X7362926D01*
Y7835227D01*
X7364204D01*
Y7837784D01*
X7365483D01*
Y7839063D01*
X7366761D01*
Y7841619D01*
X7368040D01*
Y7844176D01*
X7369318D01*
Y7846733D01*
X7370596D01*
Y7849290D01*
X7371875D01*
Y7851847D01*
X7373153D01*
Y7854403D01*
X7374432D01*
Y7856960D01*
X7375710D01*
Y7858239D01*
X7376989D01*
Y7860796D01*
X7378267D01*
Y7863352D01*
X7379545D01*
Y7865909D01*
X7380824D01*
Y7868466D01*
X7382102D01*
Y7871023D01*
X7383380D01*
Y7873580D01*
X7384659D01*
Y7876136D01*
X7385937D01*
Y7878693D01*
X7387216D01*
Y7879972D01*
X7388494D01*
Y7882529D01*
X7389773D01*
Y7885085D01*
X7391051D01*
Y7887642D01*
X7392329D01*
Y7890199D01*
X7393608D01*
Y7892756D01*
X7394886D01*
Y7895313D01*
X7396165D01*
Y7897869D01*
X7397443D01*
Y7899148D01*
X7398721D01*
Y7901705D01*
X7400000D01*
Y7904262D01*
X7401278D01*
Y7906818D01*
X7402557D01*
Y7909375D01*
X7403835D01*
Y7911932D01*
X7405113D01*
Y7914489D01*
X7406392D01*
Y7917046D01*
X7407670D01*
Y7919602D01*
D02*
G37*
%LPD*%
D34*
X10966000Y10477500D02*
G03*
X10966000Y10477500I-425000J0D01*
G01*
X8586000Y9323400D02*
X8606000D01*
X8586000D02*
Y9523400D01*
X8606000D01*
X8666000D02*
X8686000D01*
Y9323400D02*
Y9523400D01*
X8666000Y9323400D02*
X8686000D01*
X9271000Y8355500D02*
Y8535500D01*
X9441000Y8355500D02*
Y8375500D01*
X9101000Y8355500D02*
X9441000D01*
X9101000D02*
Y8375500D01*
X9441000Y8515500D02*
Y8535500D01*
X9101000D02*
X9441000D01*
X9101000Y8515500D02*
Y8535500D01*
X9741526Y9170200D02*
Y9190200D01*
X9541525Y9170200D02*
X9741526D01*
X9541525D02*
Y9190200D01*
Y9250200D02*
Y9270200D01*
X9741526D01*
Y9250200D02*
Y9270200D01*
X10778500Y9930000D02*
Y9955000D01*
X10303500D02*
X10778500D01*
X10303500Y9930000D02*
Y9955000D01*
Y9730000D02*
Y9755000D01*
Y9730000D02*
X10778500D01*
Y9755000D01*
X10541000Y9730000D02*
Y9955000D01*
D35*
X8700600Y9660200D02*
G03*
X8700600Y9660200I-10000J0D01*
G01*
X9560625Y8888000D02*
Y8968000D01*
X10420625D01*
Y8888000D02*
Y8968000D01*
Y8558000D02*
Y8638000D01*
X9560625Y8558000D02*
X10420625D01*
X9560625D02*
Y8638000D01*
X9990625Y8558000D02*
Y8968000D01*
X10893500Y10257500D02*
Y10697500D01*
X10010600Y9534900D02*
Y9819900D01*
X9750600Y9534900D02*
Y9819900D01*
X9045200Y9060926D02*
X9395200D01*
X9045200Y8960926D02*
Y9060926D01*
Y8580926D02*
Y8680926D01*
Y8580926D02*
X9395200D01*
Y8590926D01*
Y9050926D02*
Y9060926D01*
Y8800926D02*
Y8840926D01*
X8290500Y9481700D02*
Y9536700D01*
Y9481700D02*
X8358000D01*
X7898000D02*
X7965500D01*
Y9536700D01*
X7898000Y8776700D02*
X7965500D01*
X7898000Y9536700D02*
X7965500D01*
X8290500Y8776700D02*
X8358000D01*
X8290500Y9536700D02*
X8358000D01*
X7898000Y8776700D02*
Y9536700D01*
X8358000Y8776700D02*
Y9536700D01*
X7564200Y9481700D02*
Y9536700D01*
Y9481700D02*
X7631700D01*
X7171700D02*
X7239200D01*
Y9536700D01*
X7171700Y8776700D02*
X7239200D01*
X7171700Y9536700D02*
X7239200D01*
X7564200Y8776700D02*
X7631700D01*
X7564200Y9536700D02*
X7631700D01*
X7171700Y8776700D02*
Y9536700D01*
X7631700Y8776700D02*
Y9536700D01*
X7152574Y11130200D02*
X8432574D01*
X7152574Y9850200D02*
X8432574D01*
X7152574Y10800200D02*
Y11130200D01*
X8432574Y10800200D02*
Y11130200D01*
X7152574Y9850200D02*
Y10180200D01*
X8432574Y9850200D02*
Y10180200D01*
X9312600Y10490200D02*
X9342600D01*
X9412600D02*
X9432600D01*
X9342600Y10440200D02*
Y10530200D01*
Y10440200D02*
X9412600Y10490200D01*
X9342600Y10530200D02*
X9412600Y10490200D01*
Y10440200D02*
Y10540200D01*
X9012600Y10670200D02*
X9752600D01*
X9012600Y10637700D02*
Y10670200D01*
X9752600Y10540200D02*
Y10670200D01*
X9012600Y10310200D02*
Y10342700D01*
X9737600Y10540200D02*
X9752600D01*
X9737600D02*
Y10670200D01*
Y10310200D02*
Y10440200D01*
X9752600D01*
X9012600Y10310200D02*
X9752600D01*
Y10440200D01*
X8618000Y10214700D02*
X8723200Y9749700D01*
X8623000Y10214700D02*
X9665000D01*
X9564800Y9749700D02*
X9670000Y10214700D01*
X8723200Y9749700D02*
X9564800D01*
D36*
X9512700Y8695926D02*
G03*
X9512700Y8695926I-12500J0D01*
G01*
X8318000Y9601700D02*
G03*
X8318000Y9601700I-12500J0D01*
G01*
X7591700D02*
G03*
X7591700Y9601700I-12500J0D01*
G01*
X8580500Y9913700D02*
G03*
X8580500Y9913700I-12500J0D01*
G01*
D37*
X8935100Y9662700D02*
X9335100D01*
X8935100Y9158700D02*
X9335100D01*
D38*
X8025400Y7758792D02*
X8059256D01*
X8042328D01*
Y7860360D01*
X8025400Y7843432D01*
X8177751Y7758792D02*
X8110039D01*
X8177751Y7826504D01*
Y7843432D01*
X8160823Y7860360D01*
X8126967D01*
X8110039Y7843432D01*
X8211607Y7860360D02*
Y7792648D01*
X8245462Y7758792D01*
X8279318Y7792648D01*
Y7860360D01*
X8431669Y7843432D02*
Y7826504D01*
X8414741D01*
X8448597D01*
X8431669D01*
Y7775720D01*
X8448597Y7758792D01*
X8516308D02*
X8550164D01*
X8567092Y7775720D01*
Y7809576D01*
X8550164Y7826504D01*
X8516308D01*
X8499381Y7809576D01*
Y7775720D01*
X8516308Y7758792D01*
X8702515D02*
X8736371D01*
X8719443D01*
Y7860360D01*
X8702515Y7843432D01*
X8787154Y7860360D02*
X8854866D01*
Y7843432D01*
X8787154Y7775720D01*
Y7758792D01*
X8888722Y7843432D02*
X8905649Y7860360D01*
X8939505D01*
X8956433Y7843432D01*
Y7775720D01*
X8939505Y7758792D01*
X8905649D01*
X8888722Y7775720D01*
Y7843432D01*
X8990289Y7809576D02*
X9058000D01*
X9159567Y7758792D02*
X9091856D01*
X9159567Y7826504D01*
Y7843432D01*
X9142640Y7860360D01*
X9108784D01*
X9091856Y7843432D01*
X9193423D02*
X9210351Y7860360D01*
X9244207D01*
X9261135Y7843432D01*
Y7775720D01*
X9244207Y7758792D01*
X9210351D01*
X9193423Y7775720D01*
Y7843432D01*
X9294991D02*
X9311918Y7860360D01*
X9345774D01*
X9362702Y7843432D01*
Y7775720D01*
X9345774Y7758792D01*
X9311918D01*
X9294991Y7775720D01*
Y7843432D01*
X9396558Y7860360D02*
Y7792648D01*
X9430413Y7758792D01*
X9464269Y7792648D01*
Y7860360D01*
X9599692D02*
Y7758792D01*
X9650476D01*
X9667404Y7775720D01*
Y7792648D01*
Y7809576D01*
X9650476Y7826504D01*
X9599692D01*
X9718187Y7758792D02*
X9752043D01*
X9768971Y7775720D01*
Y7809576D01*
X9752043Y7826504D01*
X9718187D01*
X9701259Y7809576D01*
Y7775720D01*
X9718187Y7758792D01*
X9819755D02*
X9853610D01*
X9870538Y7775720D01*
Y7809576D01*
X9853610Y7826504D01*
X9819755D01*
X9802827Y7809576D01*
Y7775720D01*
X9819755Y7758792D01*
X9904394D02*
X9955177D01*
X9972105Y7775720D01*
X9955177Y7792648D01*
X9921322D01*
X9904394Y7809576D01*
X9921322Y7826504D01*
X9972105D01*
X10022889Y7843432D02*
Y7826504D01*
X10005961D01*
X10039817D01*
X10022889D01*
Y7775720D01*
X10039817Y7758792D01*
X10259879Y7826504D02*
X10209096D01*
X10192168Y7809576D01*
Y7775720D01*
X10209096Y7758792D01*
X10259879D01*
X10310663D02*
X10344519D01*
X10361446Y7775720D01*
Y7809576D01*
X10344519Y7826504D01*
X10310663D01*
X10293735Y7809576D01*
Y7775720D01*
X10310663Y7758792D01*
X10395302D02*
Y7826504D01*
X10446086D01*
X10463014Y7809576D01*
Y7758792D01*
X10496870Y7826504D02*
X10530725Y7758792D01*
X10564581Y7826504D01*
X10649220Y7758792D02*
X10615365D01*
X10598437Y7775720D01*
Y7809576D01*
X10615365Y7826504D01*
X10649220D01*
X10666148Y7809576D01*
Y7792648D01*
X10598437D01*
X10700004Y7826504D02*
Y7758792D01*
Y7792648D01*
X10716932Y7809576D01*
X10733860Y7826504D01*
X10750787D01*
X10818499Y7843432D02*
Y7826504D01*
X10801571D01*
X10835427D01*
X10818499D01*
Y7775720D01*
X10835427Y7758792D01*
X10936994D02*
X10903138D01*
X10886211Y7775720D01*
Y7809576D01*
X10903138Y7826504D01*
X10936994D01*
X10953922Y7809576D01*
Y7792648D01*
X10886211D01*
X10987778Y7826504D02*
Y7758792D01*
Y7792648D01*
X11004706Y7809576D01*
X11021634Y7826504D01*
X11038561D01*
X8025400Y7677519D02*
Y7575952D01*
X8076183D01*
X8093111Y7592880D01*
Y7660591D01*
X8076183Y7677519D01*
X8025400D01*
X8177751Y7575952D02*
X8143895D01*
X8126967Y7592880D01*
Y7626735D01*
X8143895Y7643663D01*
X8177751D01*
X8194679Y7626735D01*
Y7609807D01*
X8126967D01*
X8228534Y7575952D02*
X8279318D01*
X8296246Y7592880D01*
X8279318Y7609807D01*
X8245462D01*
X8228534Y7626735D01*
X8245462Y7643663D01*
X8296246D01*
X8330102Y7575952D02*
X8363957D01*
X8347030D01*
Y7643663D01*
X8330102D01*
X8448597Y7542096D02*
X8465525D01*
X8482452Y7559024D01*
Y7643663D01*
X8431669D01*
X8414741Y7626735D01*
Y7592880D01*
X8431669Y7575952D01*
X8482452D01*
X8516308D02*
Y7643663D01*
X8567092D01*
X8584020Y7626735D01*
Y7575952D01*
X8668659D02*
X8634803D01*
X8617876Y7592880D01*
Y7626735D01*
X8634803Y7643663D01*
X8668659D01*
X8685587Y7626735D01*
Y7609807D01*
X8617876D01*
X8787154Y7677519D02*
Y7575952D01*
X8736371D01*
X8719443Y7592880D01*
Y7626735D01*
X8736371Y7643663D01*
X8787154D01*
X8922577Y7677519D02*
Y7575952D01*
X8973361D01*
X8990289Y7592880D01*
Y7609807D01*
Y7626735D01*
X8973361Y7643663D01*
X8922577D01*
X9024145D02*
Y7592880D01*
X9041072Y7575952D01*
X9091856D01*
Y7559024D01*
X9074928Y7542096D01*
X9058000D01*
X9091856Y7575952D02*
Y7643663D01*
X9227279Y7575952D02*
Y7677519D01*
X9294990Y7575952D01*
Y7677519D01*
X9328846Y7575952D02*
X9362702D01*
X9345774D01*
Y7643663D01*
X9328846D01*
X9481197D02*
X9430413D01*
X9413486Y7626735D01*
Y7592880D01*
X9430413Y7575952D01*
X9481197D01*
X9515053D02*
Y7677519D01*
Y7609807D02*
X9565836Y7643663D01*
X9515053Y7609807D02*
X9565836Y7575952D01*
X9785899Y7677519D02*
Y7575952D01*
X9735115D01*
X9718187Y7592880D01*
Y7626735D01*
X9735115Y7643663D01*
X9785899D01*
X9870538Y7575952D02*
X9836682D01*
X9819755Y7592880D01*
Y7626735D01*
X9836682Y7643663D01*
X9870538D01*
X9887466Y7626735D01*
Y7609807D01*
X9819755D01*
X10090600Y7660591D02*
X10073673Y7677519D01*
X10039817D01*
X10022889Y7660591D01*
Y7643663D01*
X10039817Y7626735D01*
X10073673D01*
X10090600Y7609807D01*
Y7592880D01*
X10073673Y7575952D01*
X10039817D01*
X10022889Y7592880D01*
X10124456Y7575952D02*
Y7643663D01*
X10141384D01*
X10158312Y7626735D01*
Y7575952D01*
Y7626735D01*
X10175240Y7643663D01*
X10192168Y7626735D01*
Y7575952D01*
X10226023D02*
X10259879D01*
X10242951D01*
Y7643663D01*
X10226023D01*
X10327591Y7660591D02*
Y7643663D01*
X10310663D01*
X10344519D01*
X10327591D01*
Y7592880D01*
X10344519Y7575952D01*
X10395302Y7677519D02*
Y7575952D01*
Y7626735D01*
X10412230Y7643663D01*
X10446086D01*
X10463014Y7626735D01*
Y7575952D01*
X8025400Y7460823D02*
Y7359256D01*
X8093111D01*
X8143895Y7426967D02*
X8177751D01*
X8194679Y7410039D01*
Y7359256D01*
X8143895D01*
X8126967Y7376183D01*
X8143895Y7393111D01*
X8194679D01*
X8228534Y7426967D02*
Y7376183D01*
X8245462Y7359256D01*
X8296246D01*
Y7342328D01*
X8279318Y7325400D01*
X8262390D01*
X8296246Y7359256D02*
Y7426967D01*
X8347030Y7359256D02*
X8380885D01*
X8397813Y7376183D01*
Y7410039D01*
X8380885Y7426967D01*
X8347030D01*
X8330102Y7410039D01*
Y7376183D01*
X8347030Y7359256D01*
X8431669Y7426967D02*
Y7376183D01*
X8448597Y7359256D01*
X8499380D01*
Y7426967D01*
X8550164Y7443895D02*
Y7426967D01*
X8533236D01*
X8567092D01*
X8550164D01*
Y7376183D01*
X8567092Y7359256D01*
X8719443Y7460823D02*
Y7359256D01*
X8770226D01*
X8787154Y7376183D01*
Y7393111D01*
Y7410039D01*
X8770226Y7426967D01*
X8719443D01*
X8821010D02*
Y7376183D01*
X8837938Y7359256D01*
X8888721D01*
Y7342328D01*
X8871794Y7325400D01*
X8854866D01*
X8888721Y7359256D02*
Y7426967D01*
X9091856Y7460823D02*
X9058000D01*
X9074928D01*
Y7376183D01*
X9058000Y7359256D01*
X9041072D01*
X9024145Y7376183D01*
X9142640Y7426967D02*
X9176495D01*
X9193423Y7410039D01*
Y7359256D01*
X9142640D01*
X9125712Y7376183D01*
X9142640Y7393111D01*
X9193423D01*
X9227279Y7359256D02*
Y7460823D01*
Y7393111D02*
X9278062Y7426967D01*
X9227279Y7393111D02*
X9278062Y7359256D01*
X9328846Y7426967D02*
Y7376183D01*
X9345774Y7359256D01*
X9396558D01*
Y7426967D01*
X9430413Y7460823D02*
Y7359256D01*
X9481197D01*
X9498125Y7376183D01*
Y7393111D01*
Y7410039D01*
X9481197Y7426967D01*
X9430413D01*
X9701259Y7443895D02*
X9684331Y7460823D01*
X9650476D01*
X9633548Y7443895D01*
Y7426967D01*
X9650476Y7410039D01*
X9684331D01*
X9701259Y7393111D01*
Y7376183D01*
X9684331Y7359256D01*
X9650476D01*
X9633548Y7376183D01*
X9735115Y7426967D02*
X9802826D01*
X9735115Y7359256D01*
X9802826D01*
X9853610Y7443895D02*
Y7426967D01*
X9836682D01*
X9870538D01*
X9853610D01*
Y7376183D01*
X9870538Y7359256D01*
X9921322Y7426967D02*
Y7376183D01*
X9938250Y7359256D01*
X9989033D01*
Y7426967D01*
X10022889Y7359256D02*
Y7460823D01*
Y7393111D02*
X10073673Y7426967D01*
X10022889Y7393111D02*
X10073673Y7359256D01*
X10141384Y7426967D02*
X10175240D01*
X10192168Y7410039D01*
Y7359256D01*
X10141384D01*
X10124456Y7376183D01*
X10141384Y7393111D01*
X10192168D01*
X10242951Y7342328D02*
X10259879Y7359256D01*
Y7376183D01*
X10242951D01*
Y7359256D01*
X10259879D01*
X10242951Y7342328D01*
X10226023Y7325400D01*
X10496869Y7359256D02*
X10429158D01*
X10496869Y7426967D01*
Y7443895D01*
X10479941Y7460823D01*
X10446086D01*
X10429158Y7443895D01*
X10530725D02*
X10547653Y7460823D01*
X10581509D01*
X10598437Y7443895D01*
Y7376183D01*
X10581509Y7359256D01*
X10547653D01*
X10530725Y7376183D01*
Y7443895D01*
X10700004Y7359256D02*
X10632292D01*
X10700004Y7426967D01*
Y7443895D01*
X10683076Y7460823D01*
X10649220D01*
X10632292Y7443895D01*
X10733860D02*
X10750787Y7460823D01*
X10784643D01*
X10801571Y7443895D01*
Y7426967D01*
X10784643Y7410039D01*
X10767715D01*
X10784643D01*
X10801571Y7393111D01*
Y7376183D01*
X10784643Y7359256D01*
X10750787D01*
X10733860Y7376183D01*
X8025400Y8177751D02*
Y8025400D01*
X8101575D01*
X8126967Y8050792D01*
Y8152359D01*
X8101575Y8177751D01*
X8025400D01*
X8177751Y8025400D02*
Y8126967D01*
X8228534Y8177751D01*
X8279318Y8126967D01*
Y8025400D01*
Y8101575D01*
X8177751D01*
X8330101Y8025400D02*
Y8177751D01*
X8431669Y8025400D01*
Y8177751D01*
X8584019Y8152359D02*
X8558628Y8177751D01*
X8507844D01*
X8482452Y8152359D01*
Y8050792D01*
X8507844Y8025400D01*
X8558628D01*
X8584019Y8050792D01*
Y8101575D01*
X8533236D01*
X8736370Y8177751D02*
X8634803D01*
Y8025400D01*
X8736370D01*
X8634803Y8101575D02*
X8685586D01*
X8787154Y8025400D02*
Y8177751D01*
X8863329D01*
X8888721Y8152359D01*
Y8101575D01*
X8863329Y8076183D01*
X8787154D01*
X8837937D02*
X8888721Y8025400D01*
X8939504Y8076183D02*
Y8203143D01*
Y8050792D02*
Y8025400D01*
X9142639Y8177751D02*
Y8025400D01*
Y8101575D01*
X9244206D01*
Y8177751D01*
Y8025400D01*
X9294989Y8177751D02*
X9345773D01*
X9320381D01*
Y8025400D01*
X9294989D01*
X9345773D01*
X9523515Y8152359D02*
X9498123Y8177751D01*
X9447340D01*
X9421948Y8152359D01*
Y8050792D01*
X9447340Y8025400D01*
X9498123D01*
X9523515Y8050792D01*
Y8101575D01*
X9472732D01*
X9574299Y8177751D02*
Y8025400D01*
Y8101575D01*
X9675866D01*
Y8177751D01*
Y8025400D01*
X9879000Y8177751D02*
Y8076183D01*
X9929784Y8025400D01*
X9980568Y8076183D01*
Y8177751D01*
X10107526D02*
X10056743D01*
X10031351Y8152359D01*
Y8050792D01*
X10056743Y8025400D01*
X10107526D01*
X10132918Y8050792D01*
Y8152359D01*
X10107526Y8177751D01*
X10183702D02*
Y8025400D01*
X10285269D01*
X10336052Y8177751D02*
X10437620D01*
X10386836D01*
Y8025400D01*
X10488403D02*
Y8126967D01*
X10539187Y8177751D01*
X10589970Y8126967D01*
Y8025400D01*
Y8101575D01*
X10488403D01*
X10742321Y8152359D02*
X10716929Y8177751D01*
X10666146D01*
X10640754Y8152359D01*
Y8050792D01*
X10666146Y8025400D01*
X10716929D01*
X10742321Y8050792D01*
Y8101575D01*
X10691537D01*
X10894672Y8177751D02*
X10793105D01*
Y8025400D01*
X10894672D01*
X10793105Y8101575D02*
X10843888D01*
X9067825Y9296433D02*
X9194783D01*
X9220175Y9321825D01*
Y9372608D01*
X9194783Y9398000D01*
X9067825D01*
X9220175Y9448784D02*
Y9499567D01*
Y9474176D01*
X9067825D01*
X9093217Y9448784D01*
X8890021Y8407412D02*
Y8483588D01*
X8928108D01*
X8940804Y8470892D01*
Y8445500D01*
X8928108Y8432804D01*
X8890021D01*
X8915412D02*
X8940804Y8407412D01*
X9004284D02*
Y8483588D01*
X8966196Y8445500D01*
X9016979D01*
X8801121Y8973338D02*
Y9049514D01*
X8839208D01*
X8851904Y9036818D01*
Y9011426D01*
X8839208Y8998730D01*
X8801121D01*
X8826512D02*
X8851904Y8973338D01*
X8877296Y9036818D02*
X8889992Y9049514D01*
X8915384D01*
X8928079Y9036818D01*
Y9024122D01*
X8915384Y9011426D01*
X8902688D01*
X8915384D01*
X8928079Y8998730D01*
Y8986034D01*
X8915384Y8973338D01*
X8889992D01*
X8877296Y8986034D01*
X9918721Y8420112D02*
Y8496288D01*
X9956808D01*
X9969504Y8483592D01*
Y8458200D01*
X9956808Y8445504D01*
X9918721D01*
X9944112D02*
X9969504Y8420112D01*
X10045679D02*
X9994896D01*
X10045679Y8470896D01*
Y8483592D01*
X10032984Y8496288D01*
X10007592D01*
X9994896Y8483592D01*
X9838281Y9654386D02*
Y9717865D01*
X9870020D01*
X9880600Y9707285D01*
Y9686125D01*
X9870020Y9675545D01*
X9838281D01*
X9859440D02*
X9880600Y9654386D01*
X9901760D02*
X9922920D01*
X9912340D01*
Y9717865D01*
X9901760Y9707285D01*
X8618203Y10322556D02*
Y10373339D01*
X8605508Y10386035D01*
X8580116D01*
X8567420Y10373339D01*
Y10322556D01*
X8580116Y10309860D01*
X8605508D01*
X8592812Y10335252D02*
X8618203Y10309860D01*
X8605508D02*
X8618203Y10322556D01*
X8643595Y10309860D02*
X8668987D01*
X8656291D01*
Y10386035D01*
X8643595Y10373339D01*
X7696233Y10540975D02*
Y10388625D01*
X7797800D01*
X7848584D02*
X7899367D01*
X7873976D01*
Y10540975D01*
X7848584Y10515583D01*
X9024620Y10855935D02*
Y10779760D01*
X9062708D01*
X9075403Y10792456D01*
Y10843239D01*
X9062708Y10855935D01*
X9024620D01*
X9100795Y10779760D02*
X9126187D01*
X9113491D01*
Y10855935D01*
X9100795Y10843239D01*
X9628830Y9118592D02*
X9616134Y9131288D01*
X9590742D01*
X9578046Y9118592D01*
Y9067808D01*
X9590742Y9055112D01*
X9616134D01*
X9628830Y9067808D01*
X9705005Y9131288D02*
X9679613Y9118592D01*
X9654221Y9093200D01*
Y9067808D01*
X9666917Y9055112D01*
X9692309D01*
X9705005Y9067808D01*
Y9080504D01*
X9692309Y9093200D01*
X9654221D01*
X8483608Y9410704D02*
X8470912Y9398009D01*
Y9372617D01*
X8483608Y9359921D01*
X8534391D01*
X8547087Y9372617D01*
Y9398009D01*
X8534391Y9410704D01*
X8470912Y9486880D02*
Y9436096D01*
X8508999D01*
X8496304Y9461488D01*
Y9474184D01*
X8508999Y9486880D01*
X8534391D01*
X8547087Y9474184D01*
Y9448792D01*
X8534391Y9436096D01*
X8077217Y9131308D02*
X8051825Y9105917D01*
Y9055133D01*
X8077217Y9029741D01*
X8178783D01*
X8204175Y9055133D01*
Y9105917D01*
X8178783Y9131308D01*
X8204175Y9258267D02*
X8051825D01*
X8128000Y9182092D01*
Y9283659D01*
X10524072Y10701856D02*
X10507144Y10718784D01*
X10473289D01*
X10456361Y10701856D01*
Y10634144D01*
X10473289Y10617217D01*
X10507144D01*
X10524072Y10634144D01*
X10557928Y10701856D02*
X10574856Y10718784D01*
X10608712D01*
X10625639Y10701856D01*
Y10684928D01*
X10608712Y10668000D01*
X10591784D01*
X10608712D01*
X10625639Y10651072D01*
Y10634144D01*
X10608712Y10617217D01*
X10574856D01*
X10557928Y10634144D01*
X10528304Y9677392D02*
X10515608Y9690088D01*
X10490217D01*
X10477521Y9677392D01*
Y9626608D01*
X10490217Y9613912D01*
X10515608D01*
X10528304Y9626608D01*
X10604479Y9613912D02*
X10553696D01*
X10604479Y9664696D01*
Y9677392D01*
X10591784Y9690088D01*
X10566392D01*
X10553696Y9677392D01*
X7340617Y9169400D02*
X7315225Y9144008D01*
Y9093225D01*
X7340617Y9067833D01*
X7442183D01*
X7467575Y9093225D01*
Y9144008D01*
X7442183Y9169400D01*
X7467575Y9220184D02*
Y9270967D01*
Y9245576D01*
X7315225D01*
X7340617Y9220184D01*
D39*
X8324250Y9509200D02*
D03*
X7931750Y9509199D02*
D03*
X7597950Y9509200D02*
D03*
X7205450Y9509199D02*
D03*
%TF.MD5,384210c753bad65e37b18d40a15a5b0c*%
M02*
