%TF.GenerationSoftware,Altium Limited,Altium Designer,22.11.1 (43)*%
G04 Layer_Color=8388736*
%FSLAX45Y45*%
%MOMM*%
%TF.SameCoordinates,43E0CF4A-0526-4127-82AF-783748DA5692*%
%TF.FilePolarity,Negative*%
%TF.FileFunction,Soldermask,Top*%
%TF.Part,Single*%
G01*
G75*
%TA.AperFunction,SMDPad,CuDef*%
%ADD19R,2.50000X1.40000*%
%TA.AperFunction,ComponentPad*%
%ADD26C,1.52000*%
%ADD27R,1.52000X1.52000*%
%ADD28R,1.30000X1.30000*%
%ADD29C,1.30000*%
%ADD31C,2.05000*%
%ADD32R,2.05000X2.05000*%
%TA.AperFunction,SMDPad,CuDef*%
%ADD41R,1.80320X3.85320*%
%ADD42R,0.84320X0.71120*%
%ADD43R,1.35320X1.55320*%
%ADD44R,0.58420X0.84320*%
%ADD45R,0.58420X0.83820*%
%ADD46R,1.50320X2.00320*%
G04:AMPARAMS|DCode=47|XSize=2.1732mm|YSize=0.7932mm|CornerRadius=0.17535mm|HoleSize=0mm|Usage=FLASHONLY|Rotation=0.000|XOffset=0mm|YOffset=0mm|HoleType=Round|Shape=RoundedRectangle|*
%AMROUNDEDRECTD47*
21,1,2.17320,0.44250,0,0,0.0*
21,1,1.82250,0.79320,0,0,0.0*
1,1,0.35070,0.91125,-0.22125*
1,1,0.35070,-0.91125,-0.22125*
1,1,0.35070,-0.91125,0.22125*
1,1,0.35070,0.91125,0.22125*
%
%ADD47ROUNDEDRECTD47*%
%ADD48R,1.80320X2.20320*%
%ADD49R,1.80320X1.50320*%
%ADD50R,2.65320X2.75320*%
%ADD51R,3.10320X5.60320*%
%ADD52R,2.65320X2.35320*%
%TA.AperFunction,WasherPad*%
%ADD53C,1.72720*%
%TA.AperFunction,ViaPad*%
%ADD54C,0.83820*%
D19*
X9880600Y9927400D02*
D03*
Y9427400D02*
D03*
D26*
X11353800Y9423400D02*
D03*
Y9169400D02*
D03*
X11607800D02*
D03*
X6680200D02*
D03*
X6426200D02*
D03*
Y9423400D02*
D03*
D27*
X11607800D02*
D03*
X6680200D02*
D03*
D28*
X10716000Y10477500D02*
D03*
D29*
X10366000D02*
D03*
D31*
X9398000Y9913700D02*
D03*
X9144000D02*
D03*
D32*
X8890000D02*
D03*
D41*
X9673125Y8763000D02*
D03*
X10308125D02*
D03*
D42*
X8636000Y9379400D02*
D03*
Y9467400D02*
D03*
D43*
X9358500Y8445500D02*
D03*
X9183500D02*
D03*
D44*
X9685525Y9220200D02*
D03*
D45*
X9597525D02*
D03*
D46*
X10686000Y9842500D02*
D03*
X10396000D02*
D03*
D47*
X8887600Y9601200D02*
D03*
Y9474200D02*
D03*
Y9347200D02*
D03*
Y9220200D02*
D03*
X9382600D02*
D03*
Y9347200D02*
D03*
Y9474200D02*
D03*
Y9601200D02*
D03*
D48*
X9075200Y8820926D02*
D03*
D49*
X9365200Y8945926D02*
D03*
Y8695926D02*
D03*
D50*
X8128000Y8854200D02*
D03*
Y9459200D02*
D03*
X7401700Y8854200D02*
D03*
Y9459200D02*
D03*
D51*
X7307574Y10490200D02*
D03*
X8277574D02*
D03*
D52*
X9157600D02*
D03*
X9587600D02*
D03*
D53*
X6500000Y11100000D02*
D03*
Y7500000D02*
D03*
X11500000Y11100000D02*
D03*
Y7500000D02*
D03*
D54*
X9880600Y9156700D02*
D03*
X10007600D02*
D03*
X9880600Y9271000D02*
D03*
X10007600D02*
D03*
X10972800Y10185400D02*
D03*
X11417300Y8839200D02*
D03*
X11544300D02*
D03*
X11671300D02*
D03*
Y8953500D02*
D03*
X11544300D02*
D03*
X11417300D02*
D03*
X11290300Y8839200D02*
D03*
Y8953500D02*
D03*
X8636000Y9220200D02*
D03*
X10845800Y10845800D02*
D03*
X10972800Y10718800D02*
D03*
Y10845800D02*
D03*
X10845800Y10058400D02*
D03*
X10972800D02*
D03*
Y9931400D02*
D03*
X10845800D02*
D03*
Y9804400D02*
D03*
X10972800D02*
D03*
X9183500Y8445500D02*
D03*
%TF.MD5,dc87f7947cfff0bb788b7bbef77cbc0e*%
M02*
