%TF.GenerationSoftware,Altium Limited,Altium Designer,22.11.1 (43)*%
G04 Layer_Color=2752767*
%FSLAX45Y45*%
%MOMM*%
%TF.SameCoordinates,43E0CF4A-0526-4127-82AF-783748DA5692*%
%TF.FilePolarity,Positive*%
%TF.FileFunction,Drawing*%
%TF.Part,Single*%
G01*
G75*
%TA.AperFunction,NonConductor*%
%ADD37C,0.12700*%
%ADD65C,0.16933*%
D37*
X11303000Y9372600D02*
X11328400Y9423400D01*
X11303000Y9474200D01*
X11353800Y9448800D01*
X11404600Y9474200D01*
X11379200Y9423400D01*
X11404600Y9372600D01*
X11353800Y9398000D01*
X11303000Y9372600D01*
Y9118600D02*
X11328400Y9169400D01*
X11303000Y9220200D01*
X11353800Y9194800D01*
X11404600Y9220200D01*
X11379200Y9169400D01*
X11404600Y9118600D01*
X11353800Y9144000D01*
X11303000Y9118600D01*
X11557000Y9372600D02*
X11582400Y9423400D01*
X11557000Y9474200D01*
X11607800Y9448800D01*
X11658600Y9474200D01*
X11633200Y9423400D01*
X11658600Y9372600D01*
X11607800Y9398000D01*
X11557000Y9372600D01*
Y9118600D02*
X11582400Y9169400D01*
X11557000Y9220200D01*
X11607800Y9194800D01*
X11658600Y9220200D01*
X11633200Y9169400D01*
X11658600Y9118600D01*
X11607800Y9144000D01*
X11557000Y9118600D01*
X10665200Y10426700D02*
Y10528300D01*
X10766800D01*
Y10426700D01*
X10665200D01*
X10315200D02*
Y10528300D01*
X10416800D01*
Y10426700D01*
X10315200D01*
X6629400Y9118600D02*
X6654800Y9169400D01*
X6629400Y9220200D01*
X6680200Y9194800D01*
X6731000Y9220200D01*
X6705600Y9169400D01*
X6731000Y9118600D01*
X6680200Y9144000D01*
X6629400Y9118600D01*
Y9372600D02*
X6654800Y9423400D01*
X6629400Y9474200D01*
X6680200Y9448800D01*
X6731000Y9474200D01*
X6705600Y9423400D01*
X6731000Y9372600D01*
X6680200Y9398000D01*
X6629400Y9372600D01*
X6375400Y9118600D02*
X6400800Y9169400D01*
X6375400Y9220200D01*
X6426200Y9194800D01*
X6477000Y9220200D01*
X6451600Y9169400D01*
X6477000Y9118600D01*
X6426200Y9144000D01*
X6375400Y9118600D01*
Y9372600D02*
X6400800Y9423400D01*
X6375400Y9474200D01*
X6426200Y9448800D01*
X6477000Y9474200D01*
X6451600Y9423400D01*
X6477000Y9372600D01*
X6426200Y9398000D01*
X6375400Y9372600D01*
X6500000Y11049200D02*
X6525400Y11074600D01*
X6550800D01*
X6525400Y11100000D01*
X6550800Y11125400D01*
X6525400D01*
X6500000Y11150800D01*
X6474600Y11125400D01*
X6449200D01*
X6474600Y11100000D01*
X6449200Y11074600D01*
X6474600D01*
X6500000Y11049200D01*
Y7449200D02*
X6525400Y7474600D01*
X6550800D01*
X6525400Y7500000D01*
X6550800Y7525400D01*
X6525400D01*
X6500000Y7550800D01*
X6474600Y7525400D01*
X6449200D01*
X6474600Y7500000D01*
X6449200Y7474600D01*
X6474600D01*
X6500000Y7449200D01*
X11500000Y11049200D02*
X11525400Y11074600D01*
X11550800D01*
X11525400Y11100000D01*
X11550800Y11125400D01*
X11525400D01*
X11500000Y11150800D01*
X11474600Y11125400D01*
X11449200D01*
X11474600Y11100000D01*
X11449200Y11074600D01*
X11474600D01*
X11500000Y11049200D01*
Y7449200D02*
X11525400Y7474600D01*
X11550800D01*
X11525400Y7500000D01*
X11550800Y7525400D01*
X11525400D01*
X11500000Y7550800D01*
X11474600Y7525400D01*
X11449200D01*
X11474600Y7500000D01*
X11449200Y7474600D01*
X11474600D01*
X11500000Y7449200D01*
X9855200Y9131300D02*
Y9105900D01*
X9906000D01*
Y9131300D01*
X9931400D01*
Y9182100D01*
X9906000D01*
Y9207500D01*
X9855200D01*
Y9182100D01*
X9829800D01*
Y9131300D01*
X9855200D01*
X9982200D02*
Y9105900D01*
X10033000D01*
Y9131300D01*
X10058400D01*
Y9182100D01*
X10033000D01*
Y9207500D01*
X9982200D01*
Y9182100D01*
X9956800D01*
Y9131300D01*
X9982200D01*
X9855200Y9245600D02*
Y9220200D01*
X9906000D01*
Y9245600D01*
X9931400D01*
Y9296400D01*
X9906000D01*
Y9321800D01*
X9855200D01*
Y9296400D01*
X9829800D01*
Y9245600D01*
X9855200D01*
X9982200D02*
Y9220200D01*
X10033000D01*
Y9245600D01*
X10058400D01*
Y9296400D01*
X10033000D01*
Y9321800D01*
X9982200D01*
Y9296400D01*
X9956800D01*
Y9245600D01*
X9982200D01*
X10947400Y10160000D02*
Y10134600D01*
X10998200D01*
Y10160000D01*
X11023600D01*
Y10210800D01*
X10998200D01*
Y10236200D01*
X10947400D01*
Y10210800D01*
X10922000D01*
Y10160000D01*
X10947400D01*
X11391900Y8813800D02*
Y8788400D01*
X11442700D01*
Y8813800D01*
X11468100D01*
Y8864600D01*
X11442700D01*
Y8890000D01*
X11391900D01*
Y8864600D01*
X11366500D01*
Y8813800D01*
X11391900D01*
X11518900D02*
Y8788400D01*
X11569700D01*
Y8813800D01*
X11595100D01*
Y8864600D01*
X11569700D01*
Y8890000D01*
X11518900D01*
Y8864600D01*
X11493500D01*
Y8813800D01*
X11518900D01*
X11645900D02*
Y8788400D01*
X11696700D01*
Y8813800D01*
X11722100D01*
Y8864600D01*
X11696700D01*
Y8890000D01*
X11645900D01*
Y8864600D01*
X11620500D01*
Y8813800D01*
X11645900D01*
Y8928100D02*
Y8902700D01*
X11696700D01*
Y8928100D01*
X11722100D01*
Y8978900D01*
X11696700D01*
Y9004300D01*
X11645900D01*
Y8978900D01*
X11620500D01*
Y8928100D01*
X11645900D01*
X11518900D02*
Y8902700D01*
X11569700D01*
Y8928100D01*
X11595100D01*
Y8978900D01*
X11569700D01*
Y9004300D01*
X11518900D01*
Y8978900D01*
X11493500D01*
Y8928100D01*
X11518900D01*
X11391900D02*
Y8902700D01*
X11442700D01*
Y8928100D01*
X11468100D01*
Y8978900D01*
X11442700D01*
Y9004300D01*
X11391900D01*
Y8978900D01*
X11366500D01*
Y8928100D01*
X11391900D01*
X11264900Y8813800D02*
Y8788400D01*
X11315700D01*
Y8813800D01*
X11341100D01*
Y8864600D01*
X11315700D01*
Y8890000D01*
X11264900D01*
Y8864600D01*
X11239500D01*
Y8813800D01*
X11264900D01*
Y8928100D02*
Y8902700D01*
X11315700D01*
Y8928100D01*
X11341100D01*
Y8978900D01*
X11315700D01*
Y9004300D01*
X11264900D01*
Y8978900D01*
X11239500D01*
Y8928100D01*
X11264900D01*
X8610600Y9194800D02*
Y9169400D01*
X8661400D01*
Y9194800D01*
X8686800D01*
Y9245600D01*
X8661400D01*
Y9271000D01*
X8610600D01*
Y9245600D01*
X8585200D01*
Y9194800D01*
X8610600D01*
X10820400Y10820400D02*
Y10795000D01*
X10871200D01*
Y10820400D01*
X10896600D01*
Y10871200D01*
X10871200D01*
Y10896600D01*
X10820400D01*
Y10871200D01*
X10795000D01*
Y10820400D01*
X10820400D01*
X10947400Y10693400D02*
Y10668000D01*
X10998200D01*
Y10693400D01*
X11023600D01*
Y10744200D01*
X10998200D01*
Y10769600D01*
X10947400D01*
Y10744200D01*
X10922000D01*
Y10693400D01*
X10947400D01*
Y10820400D02*
Y10795000D01*
X10998200D01*
Y10820400D01*
X11023600D01*
Y10871200D01*
X10998200D01*
Y10896600D01*
X10947400D01*
Y10871200D01*
X10922000D01*
Y10820400D01*
X10947400D01*
X10820400Y10033000D02*
Y10007600D01*
X10871200D01*
Y10033000D01*
X10896600D01*
Y10083800D01*
X10871200D01*
Y10109200D01*
X10820400D01*
Y10083800D01*
X10795000D01*
Y10033000D01*
X10820400D01*
X10947400D02*
Y10007600D01*
X10998200D01*
Y10033000D01*
X11023600D01*
Y10083800D01*
X10998200D01*
Y10109200D01*
X10947400D01*
Y10083800D01*
X10922000D01*
Y10033000D01*
X10947400D01*
Y9906000D02*
Y9880600D01*
X10998200D01*
Y9906000D01*
X11023600D01*
Y9956800D01*
X10998200D01*
Y9982200D01*
X10947400D01*
Y9956800D01*
X10922000D01*
Y9906000D01*
X10947400D01*
X10820400D02*
Y9880600D01*
X10871200D01*
Y9906000D01*
X10896600D01*
Y9956800D01*
X10871200D01*
Y9982200D01*
X10820400D01*
Y9956800D01*
X10795000D01*
Y9906000D01*
X10820400D01*
Y9779000D02*
Y9753600D01*
X10871200D01*
Y9779000D01*
X10896600D01*
Y9829800D01*
X10871200D01*
Y9855200D01*
X10820400D01*
Y9829800D01*
X10795000D01*
Y9779000D01*
X10820400D01*
X10947400D02*
Y9753600D01*
X10998200D01*
Y9779000D01*
X11023600D01*
Y9829800D01*
X10998200D01*
Y9855200D01*
X10947400D01*
Y9829800D01*
X10922000D01*
Y9779000D01*
X10947400D01*
X9158100Y8420100D02*
Y8394700D01*
X9208900D01*
Y8420100D01*
X9234300D01*
Y8470900D01*
X9208900D01*
Y8496300D01*
X9158100D01*
Y8470900D01*
X9132700D01*
Y8420100D01*
X9158100D01*
D65*
X9448800Y9913700D02*
G03*
X9448800Y9913700I-50800J0D01*
G01*
X9194800D02*
G03*
X9194800Y9913700I-50800J0D01*
G01*
X8940800D02*
G03*
X8940800Y9913700I-50800J0D01*
G01*
%TF.MD5,8288bbeee59faf5e2f275cffa9c83991*%
M02*
