%TF.GenerationSoftware,Altium Limited,Altium Designer,22.11.1 (43)*%
G04 Layer_Physical_Order=1*
G04 Layer_Color=255*
%FSLAX45Y45*%
%MOMM*%
%TF.SameCoordinates,43E0CF4A-0526-4127-82AF-783748DA5692*%
%TF.FilePolarity,Positive*%
%TF.FileFunction,Copper,L1,Top,Signal*%
%TF.Part,Single*%
G01*
G75*
%TA.AperFunction,Conductor*%
%ADD10C,0.25400*%
%ADD11C,1.52400*%
%TA.AperFunction,SMDPad,CuDef*%
%ADD12R,1.60000X3.65000*%
%ADD13R,0.64000X0.50800*%
%ADD14R,1.15000X1.35000*%
%ADD15R,0.38100X0.64000*%
%ADD16R,0.38100X0.63500*%
%ADD17R,1.30000X1.80000*%
G04:AMPARAMS|DCode=18|XSize=1.97mm|YSize=0.59mm|CornerRadius=0.07375mm|HoleSize=0mm|Usage=FLASHONLY|Rotation=0.000|XOffset=0mm|YOffset=0mm|HoleType=Round|Shape=RoundedRectangle|*
%AMROUNDEDRECTD18*
21,1,1.97000,0.44250,0,0,0.0*
21,1,1.82250,0.59000,0,0,0.0*
1,1,0.14750,0.91125,-0.22125*
1,1,0.14750,-0.91125,-0.22125*
1,1,0.14750,-0.91125,0.22125*
1,1,0.14750,0.91125,0.22125*
%
%ADD18ROUNDEDRECTD18*%
%ADD19R,2.50000X1.40000*%
%ADD20R,1.60000X2.00000*%
%ADD21R,1.60000X1.30000*%
%ADD22R,2.45000X2.55000*%
%ADD23R,2.90000X5.40000*%
%ADD24R,2.45000X2.15000*%
%TA.AperFunction,Conductor*%
%ADD25C,1.77800*%
%TA.AperFunction,ComponentPad*%
%ADD26C,1.52000*%
%ADD27R,1.52000X1.52000*%
%ADD28R,1.30000X1.30000*%
%ADD29C,1.30000*%
%TA.AperFunction,WasherPad*%
%ADD30C,1.52400*%
%TA.AperFunction,ComponentPad*%
%ADD31C,2.05000*%
%ADD32R,2.05000X2.05000*%
%TA.AperFunction,ViaPad*%
%ADD33C,0.63500*%
G36*
X10058400Y9804400D02*
X9296400D01*
X9296400Y10058400D01*
X9347200Y10109200D01*
X10058400D01*
Y9804400D01*
D02*
G37*
G36*
X9271000Y10160000D02*
X9245600D01*
Y9804400D01*
X9042400D01*
Y10160000D01*
X8128000D01*
Y11049000D01*
X9271000D01*
Y10160000D01*
D02*
G37*
G36*
X11023600Y9753600D02*
X10642600D01*
Y10896600D01*
X11023600D01*
Y9753600D01*
D02*
G37*
G36*
X7594600Y9728200D02*
X8305800D01*
Y9324191D01*
X8299568Y9320508D01*
X8293100Y9318104D01*
X8285355Y9321312D01*
X8280400Y9321800D01*
X6324600D01*
Y9677400D01*
X7162800D01*
Y9707852D01*
Y10922000D01*
X7594600D01*
Y9728200D01*
D02*
G37*
G36*
X10058400Y9296400D02*
Y9118600D01*
X9677400D01*
Y9296400D01*
X9271000D01*
Y9525000D01*
X10058400D01*
Y9296400D01*
D02*
G37*
G36*
X11760200Y8788400D02*
X11201400D01*
Y9245600D01*
X11760200D01*
Y8788400D01*
D02*
G37*
G36*
X10453788Y10765733D02*
X10460933Y10758588D01*
X10462223Y10755473D01*
X10464800Y10751929D01*
Y10749252D01*
Y10744200D01*
Y10363200D01*
Y8585200D01*
X10185399D01*
X10185400Y10363200D01*
X9474200D01*
Y10769600D01*
X10444452D01*
X10453788Y10765733D01*
D02*
G37*
D10*
X9673125Y8763000D02*
G03*
X9490199Y8945926I-182926J0D01*
G01*
X9144000Y9167126D02*
G03*
X9365200Y8945926I221200J0D01*
G01*
X8627800Y9459200D02*
G03*
X8642800Y9474200I0J15000D01*
G01*
X9144000Y9220200D02*
G03*
X9017000Y9347200I-127000J0D01*
G01*
X9365200Y8695926D02*
G03*
X9240200Y8820926I-125000J0D01*
G01*
X9358500Y8445500D02*
G03*
X9365200Y8452200I0J6700D01*
G01*
Y8945926D02*
X9490199D01*
X9382600Y9220200D02*
X9597525D01*
X8642800Y9474200D02*
X8887600D01*
X8128000Y9459200D02*
X8627800D01*
X8636000Y9220200D02*
X8887600D01*
X8636000D02*
Y9379400D01*
X9144000Y9167126D02*
Y9220200D01*
X9075200Y8820926D02*
X9240200D01*
X9365200Y8452200D02*
Y8695926D01*
X8887600Y9347200D02*
X9017000D01*
X8887600Y9911300D02*
X8890000Y9913700D01*
D11*
X6985000Y8966200D02*
G03*
X7097000Y8854200I112000J0D01*
G01*
X6985000Y8966200D02*
G03*
X6781800Y9169400I-203200J0D01*
G01*
X11353800Y9423400D02*
X11607800D01*
X10337800D02*
X11353800D01*
X7097000Y8854200D02*
X7401700D01*
X6680200Y9169400D02*
X6781800D01*
X6426200D02*
X6680200D01*
X7401700Y8854200D02*
X8128000D01*
D12*
X9673125Y8763000D02*
D03*
X10308125D02*
D03*
D13*
X8636000Y9379400D02*
D03*
Y9467400D02*
D03*
D14*
X9358500Y8445500D02*
D03*
X9183500D02*
D03*
D15*
X9685525Y9220200D02*
D03*
D16*
X9597525D02*
D03*
D17*
X10686000Y9842500D02*
D03*
X10396000D02*
D03*
D18*
X8887600Y9601200D02*
D03*
Y9474200D02*
D03*
Y9347200D02*
D03*
Y9220200D02*
D03*
X9382600D02*
D03*
Y9347200D02*
D03*
Y9474200D02*
D03*
Y9601200D02*
D03*
D19*
X9880600Y9927400D02*
D03*
Y9427400D02*
D03*
D20*
X9075200Y8820926D02*
D03*
D21*
X9365200Y8945926D02*
D03*
Y8695926D02*
D03*
D22*
X8128000Y8854200D02*
D03*
Y9459200D02*
D03*
X7401700Y8854200D02*
D03*
Y9459200D02*
D03*
D23*
X7307574Y10490200D02*
D03*
X8277574D02*
D03*
D24*
X9157600D02*
D03*
X9587600D02*
D03*
D25*
X9398000Y9652000D02*
Y9913700D01*
X8890000Y9652000D02*
Y9913700D01*
D26*
X11353800Y9423400D02*
D03*
Y9169400D02*
D03*
X11607800D02*
D03*
X6680200D02*
D03*
X6426200D02*
D03*
Y9423400D02*
D03*
D27*
X11607800D02*
D03*
X6680200D02*
D03*
D28*
X10716000Y10477500D02*
D03*
D29*
X10366000D02*
D03*
D30*
X6500000Y11100000D02*
D03*
Y7500000D02*
D03*
X11500000Y11100000D02*
D03*
Y7500000D02*
D03*
D31*
X9398000Y9913700D02*
D03*
X9144000D02*
D03*
D32*
X8890000D02*
D03*
D33*
X9880600Y9156700D02*
D03*
X10007600D02*
D03*
X9880600Y9271000D02*
D03*
X10007600D02*
D03*
X10972800Y10185400D02*
D03*
X11417300Y8839200D02*
D03*
X11544300D02*
D03*
X11671300D02*
D03*
Y8953500D02*
D03*
X11544300D02*
D03*
X11417300D02*
D03*
X11290300Y8839200D02*
D03*
Y8953500D02*
D03*
X8636000Y9220200D02*
D03*
X10845800Y10845800D02*
D03*
X10972800Y10718800D02*
D03*
Y10845800D02*
D03*
X10845800Y10058400D02*
D03*
X10972800D02*
D03*
Y9931400D02*
D03*
X10845800D02*
D03*
Y9804400D02*
D03*
X10972800D02*
D03*
X9183500Y8445500D02*
D03*
%TF.MD5,fa4d41d0742c9a6bb1d79892d4e97a51*%
M02*
