%TF.GenerationSoftware,Altium Limited,Altium Designer,22.11.1 (43)*%
G04 Layer_Color=32896*
%FSLAX45Y45*%
%MOMM*%
%TF.SameCoordinates,43E0CF4A-0526-4127-82AF-783748DA5692*%
%TF.FilePolarity,Positive*%
%TF.FileFunction,Legend,Bot*%
%TF.Part,Single*%
G01*
G75*
%TA.AperFunction,NonConductor*%
%ADD35C,0.20000*%
%ADD40C,0.20320*%
D35*
X11222800Y9036050D02*
Y9556750D01*
Y9036050D02*
X11738800D01*
Y9556750D01*
X11222800D02*
X11738800D01*
X6295200D02*
X6811200D01*
Y9036050D02*
Y9556750D01*
X6295200Y9036050D02*
X6811200D01*
X6295200D02*
Y9556750D01*
D40*
X10425840Y11310599D02*
X10404680D01*
X10415260D01*
Y11257700D01*
X10404680Y11247120D01*
X10394100D01*
X10383520Y11257700D01*
X10446999Y11310599D02*
Y11247120D01*
X10489319D01*
X10552799Y11300020D02*
X10542219Y11310599D01*
X10521059D01*
X10510479Y11300020D01*
Y11257700D01*
X10521059Y11247120D01*
X10542219D01*
X10552799Y11257700D01*
X10616278Y11310599D02*
X10595118D01*
X10605698D01*
Y11257700D01*
X10595118Y11247120D01*
X10584538D01*
X10573958Y11257700D01*
X10637438Y11310599D02*
Y11247120D01*
X10679757D01*
X10743237Y11300020D02*
X10732657Y11310599D01*
X10711497D01*
X10700917Y11300020D01*
Y11257700D01*
X10711497Y11247120D01*
X10732657D01*
X10743237Y11257700D01*
X10806716Y11310599D02*
X10785556D01*
X10796136D01*
Y11257700D01*
X10785556Y11247120D01*
X10774976D01*
X10764397Y11257700D01*
X10827876Y11310599D02*
Y11247120D01*
X10870196D01*
X10933675Y11300020D02*
X10923095Y11310599D01*
X10901935D01*
X10891355Y11300020D01*
Y11257700D01*
X10901935Y11247120D01*
X10923095D01*
X10933675Y11257700D01*
X10997155Y11310599D02*
X10975995D01*
X10986575D01*
Y11257700D01*
X10975995Y11247120D01*
X10965415D01*
X10954835Y11257700D01*
X11018314Y11310599D02*
Y11247120D01*
X11060634D01*
X11124113Y11300020D02*
X11113534Y11310599D01*
X11092374D01*
X11081794Y11300020D01*
Y11257700D01*
X11092374Y11247120D01*
X11113534D01*
X11124113Y11257700D01*
%TF.MD5,2a12f20802f09abc331a2a0e2f5adcc7*%
M02*
