%TF.GenerationSoftware,Altium Limited,Altium Designer,22.11.1 (43)*%
G04 Layer_Color=128*
%FSLAX45Y45*%
%MOMM*%
%TF.SameCoordinates,43E0CF4A-0526-4127-82AF-783748DA5692*%
%TF.FilePolarity,Positive*%
%TF.FileFunction,Drillmap*%
%TF.Part,Single*%
G01*
G75*
%TA.AperFunction,NonConductor*%
%ADD37C,0.12700*%
D37*
X11302800Y9423400D02*
X11404800D01*
X11353800Y9372400D02*
Y9474400D01*
X11302800Y9169400D02*
X11404800D01*
X11353800Y9118400D02*
Y9220400D01*
X11556800Y9423400D02*
X11658800D01*
X11607800Y9372400D02*
Y9474400D01*
X11556800Y9169400D02*
X11658800D01*
X11607800Y9118400D02*
Y9220400D01*
X10676000Y10477500D02*
X10756000D01*
X10716000Y10437500D02*
Y10517500D01*
X10326000Y10477500D02*
X10406000D01*
X10366000Y10437500D02*
Y10517500D01*
X6629200Y9169400D02*
X6731200D01*
X6680200Y9118400D02*
Y9220400D01*
X6629200Y9423400D02*
X6731200D01*
X6680200Y9372400D02*
Y9474400D01*
X6375200Y9169400D02*
X6477200D01*
X6426200Y9118400D02*
Y9220400D01*
X6375200Y9423400D02*
X6477200D01*
X6426200Y9372400D02*
Y9474400D01*
X6340000Y11100000D02*
X6660000D01*
X6500000Y10940000D02*
Y11260000D01*
X6340000Y7500000D02*
X6660000D01*
X6500000Y7340000D02*
Y7660000D01*
X11340000Y11100000D02*
X11660000D01*
X11500000Y10940000D02*
Y11260000D01*
X11340000Y7500000D02*
X11660000D01*
X11500000Y7340000D02*
Y7660000D01*
X9330500Y9913700D02*
X9465500D01*
X9398000Y9846200D02*
Y9981200D01*
X9076500Y9913700D02*
X9211500D01*
X9144000Y9846200D02*
Y9981200D01*
X8822500Y9913700D02*
X8957500D01*
X8890000Y9846200D02*
Y9981200D01*
X9861550Y9156700D02*
X9899650D01*
X9880600Y9137650D02*
Y9175750D01*
X9988550Y9156700D02*
X10026650D01*
X10007600Y9137650D02*
Y9175750D01*
X9861550Y9271000D02*
X9899650D01*
X9880600Y9251950D02*
Y9290050D01*
X9988550Y9271000D02*
X10026650D01*
X10007600Y9251950D02*
Y9290050D01*
X10953750Y10185400D02*
X10991850D01*
X10972800Y10166350D02*
Y10204450D01*
X11398250Y8839200D02*
X11436350D01*
X11417300Y8820150D02*
Y8858250D01*
X11525250Y8839200D02*
X11563350D01*
X11544300Y8820150D02*
Y8858250D01*
X11652250Y8839200D02*
X11690350D01*
X11671300Y8820150D02*
Y8858250D01*
X11652250Y8953500D02*
X11690350D01*
X11671300Y8934450D02*
Y8972550D01*
X11525250Y8953500D02*
X11563350D01*
X11544300Y8934450D02*
Y8972550D01*
X11398250Y8953500D02*
X11436350D01*
X11417300Y8934450D02*
Y8972550D01*
X11271250Y8839200D02*
X11309350D01*
X11290300Y8820150D02*
Y8858250D01*
X11271250Y8953500D02*
X11309350D01*
X11290300Y8934450D02*
Y8972550D01*
X8616950Y9220200D02*
X8655050D01*
X8636000Y9201150D02*
Y9239250D01*
X10826750Y10845800D02*
X10864850D01*
X10845800Y10826750D02*
Y10864850D01*
X10953750Y10718800D02*
X10991850D01*
X10972800Y10699750D02*
Y10737850D01*
X10953750Y10845800D02*
X10991850D01*
X10972800Y10826750D02*
Y10864850D01*
X10826750Y10058400D02*
X10864850D01*
X10845800Y10039350D02*
Y10077450D01*
X10953750Y10058400D02*
X10991850D01*
X10972800Y10039350D02*
Y10077450D01*
X10953750Y9931400D02*
X10991850D01*
X10972800Y9912350D02*
Y9950450D01*
X10826750Y9931400D02*
X10864850D01*
X10845800Y9912350D02*
Y9950450D01*
X10826750Y9804400D02*
X10864850D01*
X10845800Y9785350D02*
Y9823450D01*
X10953750Y9804400D02*
X10991850D01*
X10972800Y9785350D02*
Y9823450D01*
X9164450Y8445500D02*
X9202550D01*
X9183500Y8426450D02*
Y8464550D01*
%TF.MD5,b2dc39532810ecdf63f08f36002dddae*%
M02*
