%TF.GenerationSoftware,Altium Limited,Altium Designer,22.11.1 (43)*%
G04 Layer_Physical_Order=2*
G04 Layer_Color=16711680*
%FSLAX45Y45*%
%MOMM*%
%TF.SameCoordinates,43E0CF4A-0526-4127-82AF-783748DA5692*%
%TF.FilePolarity,Positive*%
%TF.FileFunction,Copper,L2,Bot,Signal*%
%TF.Part,Single*%
G01*
G75*
%TA.AperFunction,ComponentPad*%
%ADD26C,1.52000*%
%ADD27R,1.52000X1.52000*%
%ADD28R,1.30000X1.30000*%
%ADD29C,1.30000*%
%TA.AperFunction,WasherPad*%
%ADD30C,1.52400*%
%TA.AperFunction,ComponentPad*%
%ADD31C,2.05000*%
%ADD32R,2.05000X2.05000*%
%TA.AperFunction,ViaPad*%
%ADD33C,0.63500*%
G36*
X11800000Y7200000D02*
X6200000D01*
Y11400000D01*
X11800000D01*
Y7200000D01*
D02*
G37*
%LPC*%
G36*
X11536878Y11285400D02*
X11463122D01*
X11394979Y11257174D01*
X11342826Y11205021D01*
X11314600Y11136878D01*
Y11063122D01*
X11342826Y10994979D01*
X11394979Y10942825D01*
X11463122Y10914600D01*
X11536878D01*
X11605021Y10942825D01*
X11657175Y10994979D01*
X11685400Y11063122D01*
Y11136878D01*
X11657175Y11205021D01*
X11605021Y11257174D01*
X11536878Y11285400D01*
D02*
G37*
G36*
X6536878D02*
X6463122D01*
X6394979Y11257174D01*
X6342826Y11205021D01*
X6314600Y11136878D01*
Y11063122D01*
X6342826Y10994979D01*
X6394979Y10942825D01*
X6463122Y10914600D01*
X6536878D01*
X6605021Y10942825D01*
X6657174Y10994979D01*
X6685400Y11063122D01*
Y11136878D01*
X6657174Y11205021D01*
X6605021Y11257174D01*
X6536878Y11285400D01*
D02*
G37*
G36*
X10383982Y10567900D02*
X10348018D01*
X10314793Y10554137D01*
X10289363Y10528707D01*
X10275600Y10495482D01*
Y10459518D01*
X10289363Y10426293D01*
X10314793Y10400863D01*
X10348018Y10387100D01*
X10383982D01*
X10417208Y10400863D01*
X10442637Y10426293D01*
X10456400Y10459518D01*
Y10495482D01*
X10442637Y10528707D01*
X10417208Y10554137D01*
X10383982Y10567900D01*
D02*
G37*
G36*
X9423441Y10041600D02*
X9372559D01*
X9325551Y10022128D01*
X9289572Y9986149D01*
X9277350Y9956644D01*
X9264650D01*
X9252428Y9986149D01*
X9216449Y10022128D01*
X9169441Y10041600D01*
X9118559D01*
X9071551Y10022128D01*
X9035572Y9986149D01*
X9030356Y9973558D01*
X9017900Y9976035D01*
Y10041600D01*
X8762100D01*
Y9785800D01*
X9017900D01*
Y9851365D01*
X9030356Y9853842D01*
X9035572Y9841251D01*
X9071551Y9805272D01*
X9118559Y9785800D01*
X9169441D01*
X9216449Y9805272D01*
X9252428Y9841251D01*
X9264650Y9870756D01*
X9277350D01*
X9289572Y9841251D01*
X9325551Y9805272D01*
X9372559Y9785800D01*
X9423441D01*
X9470449Y9805272D01*
X9506428Y9841251D01*
X9525900Y9888259D01*
Y9939141D01*
X9506428Y9986149D01*
X9470449Y10022128D01*
X9423441Y10041600D01*
D02*
G37*
G36*
X8712200Y11252200D02*
X6883400D01*
Y9702800D01*
X8712200D01*
Y11252200D01*
D02*
G37*
G36*
X11709200Y9524800D02*
X11506400D01*
Y9322000D01*
X11709200D01*
Y9524800D01*
D02*
G37*
G36*
X11373970D02*
X11333630D01*
X11296362Y9509363D01*
X11267837Y9480838D01*
X11252400Y9443570D01*
Y9403230D01*
X11267837Y9365962D01*
X11296362Y9337437D01*
X11333630Y9322000D01*
X11373970D01*
X11411238Y9337437D01*
X11439763Y9365962D01*
X11455200Y9403230D01*
Y9443570D01*
X11439763Y9480838D01*
X11411238Y9509363D01*
X11373970Y9524800D01*
D02*
G37*
G36*
X6781600D02*
X6578800D01*
Y9322000D01*
X6781600D01*
Y9524800D01*
D02*
G37*
G36*
X6446370D02*
X6406030D01*
X6368762Y9509363D01*
X6340237Y9480838D01*
X6324800Y9443570D01*
Y9403230D01*
X6340237Y9365962D01*
X6368762Y9337437D01*
X6406030Y9322000D01*
X6446370D01*
X6483638Y9337437D01*
X6512163Y9365962D01*
X6527600Y9403230D01*
Y9443570D01*
X6512163Y9480838D01*
X6483638Y9509363D01*
X6446370Y9524800D01*
D02*
G37*
G36*
X11536878Y7685400D02*
X11463122D01*
X11394979Y7657174D01*
X11342826Y7605021D01*
X11314600Y7536878D01*
Y7463122D01*
X11342826Y7394979D01*
X11394979Y7342826D01*
X11463122Y7314600D01*
X11536878D01*
X11605021Y7342826D01*
X11657175Y7394979D01*
X11685400Y7463122D01*
Y7536878D01*
X11657175Y7605021D01*
X11605021Y7657174D01*
X11536878Y7685400D01*
D02*
G37*
G36*
X6536878D02*
X6463122D01*
X6394979Y7657174D01*
X6342826Y7605021D01*
X6314600Y7536878D01*
Y7463122D01*
X6342826Y7394979D01*
X6394979Y7342826D01*
X6463122Y7314600D01*
X6536878D01*
X6605021Y7342826D01*
X6657174Y7394979D01*
X6685400Y7463122D01*
Y7536878D01*
X6657174Y7605021D01*
X6605021Y7657174D01*
X6536878Y7685400D01*
D02*
G37*
%LPD*%
D26*
X11353800Y9423400D02*
D03*
Y9169400D02*
D03*
X11607800D02*
D03*
X6680200D02*
D03*
X6426200D02*
D03*
Y9423400D02*
D03*
D27*
X11607800D02*
D03*
X6680200D02*
D03*
D28*
X10716000Y10477500D02*
D03*
D29*
X10366000D02*
D03*
D30*
X6500000Y11100000D02*
D03*
Y7500000D02*
D03*
X11500000Y11100000D02*
D03*
Y7500000D02*
D03*
D31*
X9398000Y9913700D02*
D03*
X9144000D02*
D03*
D32*
X8890000D02*
D03*
D33*
X9880600Y9156700D02*
D03*
X10007600D02*
D03*
X9880600Y9271000D02*
D03*
X10007600D02*
D03*
X10972800Y10185400D02*
D03*
X11417300Y8839200D02*
D03*
X11544300D02*
D03*
X11671300D02*
D03*
Y8953500D02*
D03*
X11544300D02*
D03*
X11417300D02*
D03*
X11290300Y8839200D02*
D03*
Y8953500D02*
D03*
X8636000Y9220200D02*
D03*
X10845800Y10845800D02*
D03*
X10972800Y10718800D02*
D03*
Y10845800D02*
D03*
X10845800Y10058400D02*
D03*
X10972800D02*
D03*
Y9931400D02*
D03*
X10845800D02*
D03*
Y9804400D02*
D03*
X10972800D02*
D03*
X9183500Y8445500D02*
D03*
%TF.MD5,039af5489bd207d83863e59769fad392*%
M02*
