%TF.GenerationSoftware,Altium Limited,Altium Designer,22.11.1 (43)*%
G04 Layer_Color=16711935*
%FSLAX45Y45*%
%MOMM*%
%TF.SameCoordinates,43E0CF4A-0526-4127-82AF-783748DA5692*%
%TF.FilePolarity,Negative*%
%TF.FileFunction,Soldermask,Bot*%
%TF.Part,Single*%
G01*
G75*
%TA.AperFunction,ComponentPad*%
%ADD26C,1.52000*%
%ADD27R,1.52000X1.52000*%
%ADD28R,1.30000X1.30000*%
%ADD29C,1.30000*%
%ADD31C,2.05000*%
%ADD32R,2.05000X2.05000*%
%TA.AperFunction,WasherPad*%
%ADD53C,1.72720*%
%TA.AperFunction,ViaPad*%
%ADD54C,0.83820*%
D26*
X11353800Y9423400D02*
D03*
Y9169400D02*
D03*
X11607800D02*
D03*
X6680200D02*
D03*
X6426200D02*
D03*
Y9423400D02*
D03*
D27*
X11607800D02*
D03*
X6680200D02*
D03*
D28*
X10716000Y10477500D02*
D03*
D29*
X10366000D02*
D03*
D31*
X9398000Y9913700D02*
D03*
X9144000D02*
D03*
D32*
X8890000D02*
D03*
D53*
X6500000Y11100000D02*
D03*
Y7500000D02*
D03*
X11500000Y11100000D02*
D03*
Y7500000D02*
D03*
D54*
X9880600Y9156700D02*
D03*
X10007600D02*
D03*
X9880600Y9271000D02*
D03*
X10007600D02*
D03*
X10972800Y10185400D02*
D03*
X11417300Y8839200D02*
D03*
X11544300D02*
D03*
X11671300D02*
D03*
Y8953500D02*
D03*
X11544300D02*
D03*
X11417300D02*
D03*
X11290300Y8839200D02*
D03*
Y8953500D02*
D03*
X8636000Y9220200D02*
D03*
X10845800Y10845800D02*
D03*
X10972800Y10718800D02*
D03*
Y10845800D02*
D03*
X10845800Y10058400D02*
D03*
X10972800D02*
D03*
Y9931400D02*
D03*
X10845800D02*
D03*
Y9804400D02*
D03*
X10972800D02*
D03*
X9183500Y8445500D02*
D03*
%TF.MD5,0401d0f4f1f743c8fdb4b0f171351dc4*%
M02*
