%TF.GenerationSoftware,Altium Limited,Altium Designer,22.11.1 (43)*%
G04 Layer_Color=8421504*
%FSLAX45Y45*%
%MOMM*%
%TF.SameCoordinates,43E0CF4A-0526-4127-82AF-783748DA5692*%
%TF.FilePolarity,Positive*%
%TF.FileFunction,Paste,Top*%
%TF.Part,Single*%
G01*
G75*
%TA.AperFunction,SMDPad,CuDef*%
%ADD12R,1.60000X3.65000*%
%ADD13R,0.64000X0.50800*%
%ADD14R,1.15000X1.35000*%
%ADD15R,0.38100X0.64000*%
%ADD16R,0.38100X0.63500*%
%ADD17R,1.30000X1.80000*%
G04:AMPARAMS|DCode=18|XSize=1.97mm|YSize=0.59mm|CornerRadius=0.07375mm|HoleSize=0mm|Usage=FLASHONLY|Rotation=0.000|XOffset=0mm|YOffset=0mm|HoleType=Round|Shape=RoundedRectangle|*
%AMROUNDEDRECTD18*
21,1,1.97000,0.44250,0,0,0.0*
21,1,1.82250,0.59000,0,0,0.0*
1,1,0.14750,0.91125,-0.22125*
1,1,0.14750,-0.91125,-0.22125*
1,1,0.14750,-0.91125,0.22125*
1,1,0.14750,0.91125,0.22125*
%
%ADD18ROUNDEDRECTD18*%
%ADD19R,2.50000X1.40000*%
%ADD20R,1.60000X2.00000*%
%ADD21R,1.60000X1.30000*%
%ADD22R,2.45000X2.55000*%
%ADD23R,2.90000X5.40000*%
%ADD24R,2.45000X2.15000*%
D12*
X9673125Y8763000D02*
D03*
X10308125D02*
D03*
D13*
X8636000Y9379400D02*
D03*
Y9467400D02*
D03*
D14*
X9358500Y8445500D02*
D03*
X9183500D02*
D03*
D15*
X9685525Y9220200D02*
D03*
D16*
X9597525D02*
D03*
D17*
X10686000Y9842500D02*
D03*
X10396000D02*
D03*
D18*
X8887600Y9601200D02*
D03*
Y9474200D02*
D03*
Y9347200D02*
D03*
Y9220200D02*
D03*
X9382600D02*
D03*
Y9347200D02*
D03*
Y9474200D02*
D03*
Y9601200D02*
D03*
D19*
X9880600Y9927400D02*
D03*
Y9427400D02*
D03*
D20*
X9075200Y8820926D02*
D03*
D21*
X9365200Y8945926D02*
D03*
Y8695926D02*
D03*
D22*
X8128000Y8854200D02*
D03*
Y9459200D02*
D03*
X7401700Y8854200D02*
D03*
Y9459200D02*
D03*
D23*
X7307574Y10490200D02*
D03*
X8277574D02*
D03*
D24*
X9157600D02*
D03*
X9587600D02*
D03*
%TF.MD5,79d2c1bf5e90d1d6c9025d34889d5e84*%
M02*
